<svg width="40" height="35" viewBox="0 0 40 35" fill="none" xmlns="http://www.w3.org/2000/svg">
<path d="M22.6172 30.4268L20.8828 31.9443C20.1484 32.5869 18.9609 32.5869 18.2344 31.9443L3.04687 18.6621C2.3125 18.0195 2.3125 16.9805 3.04687 16.3447L18.2344 3.05566C18.9687 2.41309 20.1562 2.41309 20.8828 3.05566L22.6172 4.57324C23.3594 5.22266 23.3437 6.28223 22.5859 6.91797L13.1719 14.7656H35.625C36.6641 14.7656 37.5 15.4971 37.5 16.4062V18.5938C37.5 19.5029 36.6641 20.2344 35.625 20.2344H13.1719L22.5859 28.082C23.3516 28.7178 23.3672 29.7773 22.6172 30.4268Z" fill="#9B59B6"/>
</svg>
