<svg width="36" height="36" viewBox="0 0 36 36" fill="none" xmlns="http://www.w3.org/2000/svg">
<g filter="url(#filter0_b_180_1871)">
<path d="M26.7891 9.26309C22.1422 4.4511 14.4784 4.31733 9.66644 8.96422C4.85445 13.6111 4.72068 21.2749 9.36757 26.0868C14.0144 30.8988 21.6782 31.0326 26.4902 26.3857C31.3022 21.7388 31.436 14.0751 26.7891 9.26309ZM11.0535 24.4587C7.30548 20.5775 7.41334 14.3982 11.2945 10.6502C15.1758 6.90213 21.3551 7.00999 25.1031 10.8912C28.8512 14.7724 28.7433 20.9517 24.8621 24.6998C20.9809 28.4478 14.8016 28.3399 11.0535 24.4587ZM23.716 19.1408L19.4215 19.0659L19.3465 23.3603C19.3409 23.6849 19.0739 23.9426 18.7494 23.937L17.1891 23.9097C16.8646 23.9041 16.6068 23.6371 16.6124 23.3126L16.6874 19.0182L12.3929 18.9432C12.0684 18.9375 11.8107 18.6706 11.8163 18.3461L11.8436 16.7857C11.8492 16.4612 12.1162 16.2034 12.4407 16.2091L16.7351 16.2841L16.8101 11.9896C16.8158 11.6651 17.0827 11.4073 17.4072 11.413L18.9676 11.4402C19.2921 11.4459 19.5499 11.7128 19.5442 12.0373L19.4692 16.3318L23.7637 16.4067C24.0882 16.4124 24.346 16.6794 24.3403 17.0039L24.3131 18.5642C24.3074 18.8887 24.0405 19.1465 23.716 19.1408Z" fill="#E67E22"/>
</g>
<defs>
<filter id="filter0_b_180_1871" x="-3.59668" y="-4" width="43.35" height="43.3499" filterUnits="userSpaceOnUse" color-interpolation-filters="sRGB">
<feFlood flood-opacity="0" result="BackgroundImageFix"/>
<feGaussianBlur in="BackgroundImageFix" stdDeviation="2"/>
<feComposite in2="SourceAlpha" operator="in" result="effect1_backgroundBlur_180_1871"/>
<feBlend mode="normal" in="SourceGraphic" in2="effect1_backgroundBlur_180_1871" result="shape"/>
</filter>
</defs>
</svg>
