<svg width="20" height="25" viewBox="0 0 20 25" fill="none" xmlns="http://www.w3.org/2000/svg">
<path d="M6.60714 14.0219H4.82143C4.52679 14.0219 4.28571 13.7684 4.28571 13.4587V11.5812C4.28571 11.2714 4.52679 11.0179 4.82143 11.0179H6.60714C6.90179 11.0179 7.14286 11.2714 7.14286 11.5812V13.4587C7.14286 13.7684 6.90179 14.0219 6.60714 14.0219ZM11.4286 13.4587V11.5812C11.4286 11.2714 11.1875 11.0179 10.8929 11.0179H9.10714C8.8125 11.0179 8.57143 11.2714 8.57143 11.5812V13.4587C8.57143 13.7684 8.8125 14.0219 9.10714 14.0219H10.8929C11.1875 14.0219 11.4286 13.7684 11.4286 13.4587ZM15.7143 13.4587V11.5812C15.7143 11.2714 15.4732 11.0179 15.1786 11.0179H13.3929C13.0982 11.0179 12.8571 11.2714 12.8571 11.5812V13.4587C12.8571 13.7684 13.0982 14.0219 13.3929 14.0219H15.1786C15.4732 14.0219 15.7143 13.7684 15.7143 13.4587ZM11.4286 17.9647V16.0872C11.4286 15.7774 11.1875 15.5239 10.8929 15.5239H9.10714C8.8125 15.5239 8.57143 15.7774 8.57143 16.0872V17.9647C8.57143 18.2744 8.8125 18.5279 9.10714 18.5279H10.8929C11.1875 18.5279 11.4286 18.2744 11.4286 17.9647ZM7.14286 17.9647V16.0872C7.14286 15.7774 6.90179 15.5239 6.60714 15.5239H4.82143C4.52679 15.5239 4.28571 15.7774 4.28571 16.0872V17.9647C4.28571 18.2744 4.52679 18.5279 4.82143 18.5279H6.60714C6.90179 18.5279 7.14286 18.2744 7.14286 17.9647ZM15.7143 17.9647V16.0872C15.7143 15.7774 15.4732 15.5239 15.1786 15.5239H13.3929C13.0982 15.5239 12.8571 15.7774 12.8571 16.0872V17.9647C12.8571 18.2744 13.0982 18.5279 13.3929 18.5279H15.1786C15.4732 18.5279 15.7143 18.2744 15.7143 17.9647ZM20 5.76091V22.2829C20 23.5268 19.0402 24.5359 17.8571 24.5359H2.14286C0.959821 24.5359 0 23.5268 0 22.2829V5.76091C0 4.51706 0.959821 3.50791 2.14286 3.50791H4.28571V1.06716C4.28571 0.757369 4.52679 0.503906 4.82143 0.503906H6.60714C6.90179 0.503906 7.14286 0.757369 7.14286 1.06716V3.50791H12.8571V1.06716C12.8571 0.757369 13.0982 0.503906 13.3929 0.503906H15.1786C15.4732 0.503906 15.7143 0.757369 15.7143 1.06716V3.50791H17.8571C19.0402 3.50791 20 4.51706 20 5.76091ZM17.8571 22.0013V8.01391H2.14286V22.0013C2.14286 22.1562 2.26339 22.2829 2.41071 22.2829H17.5893C17.7366 22.2829 17.8571 22.1562 17.8571 22.0013Z" fill="#A0A0A0"/>
</svg>
