<svg width="18" height="25" viewBox="0 0 18 25" fill="none" xmlns="http://www.w3.org/2000/svg">
<path d="M8.07506 23.8777C1.26422 13.9908 0 12.9761 0 9.34257C0 4.36536 4.02942 0.330566 9 0.330566C13.9706 0.330566 18 4.36536 18 9.34257C18 12.9761 16.7358 13.9908 9.92494 23.8777C9.47798 24.5242 8.52197 24.5242 8.07506 23.8777ZM9 13.0976C11.0711 13.0976 12.75 11.4164 12.75 9.34257C12.75 7.26873 11.0711 5.58757 9 5.58757C6.92892 5.58757 5.25 7.26873 5.25 9.34257C5.25 11.4164 6.92892 13.0976 9 13.0976Z" fill="#A0A0A0"/>
</svg>
