<svg width="199" height="221" viewBox="0 0 199 221" fill="none" xmlns="http://www.w3.org/2000/svg">
<path d="M152.938 64.125H147.594C144.641 64.125 142.25 66.5163 142.25 69.4688V85.5C142.25 110.482 120.711 130.528 95.2283 128.043C73.0184 125.875 56.75 105.91 56.75 83.5963V69.4688C56.75 66.5163 54.3587 64.125 51.4062 64.125H46.0625C43.1101 64.125 40.7188 66.5163 40.7188 69.4688V82.8816C40.7188 112.82 62.0837 139.509 91.4844 143.563V154.969H72.7812C69.8288 154.969 67.4375 157.36 67.4375 160.312V165.656C67.4375 168.609 69.8288 171 72.7812 171H126.219C129.171 171 131.562 168.609 131.562 165.656V160.312C131.562 157.36 129.171 154.969 126.219 154.969H107.516V143.69C136.141 139.762 158.281 115.191 158.281 85.5V69.4688C158.281 66.5163 155.89 64.125 152.938 64.125ZM99.5 117.562C117.208 117.562 131.562 103.208 131.562 85.5H103.064C101.096 85.5 99.5 84.3043 99.5 82.8281V77.4844C99.5 76.0082 101.096 74.8125 103.064 74.8125H131.562V64.125H103.064C101.096 64.125 99.5 62.9293 99.5 61.4531V56.1094C99.5 54.6332 101.096 53.4375 103.064 53.4375H131.562V42.75H103.064C101.096 42.75 99.5 41.5543 99.5 40.0781V34.7344C99.5 33.2582 101.096 32.0625 103.064 32.0625H131.562C131.562 14.3546 117.208 0 99.5 0C81.7921 0 67.4375 14.3546 67.4375 32.0625V85.5C67.4375 103.208 81.7921 117.562 99.5 117.562Z" fill="black"/>
<path d="M30.3906 211H24.8047V191C24.8047 190.609 24.7266 190.245 24.5703 189.906C24.4271 189.568 24.2253 189.275 23.9648 189.027C23.7174 188.767 23.4245 188.565 23.0859 188.422C22.7474 188.279 22.3828 188.207 21.9922 188.207C21.6016 188.207 21.237 188.279 20.8984 188.422C20.5599 188.565 20.2604 188.767 20 189.027C19.7526 189.275 19.5573 189.568 19.4141 189.906C19.2708 190.245 19.1992 190.609 19.1992 191V211H13.5938V191C13.5938 190.609 13.5221 190.245 13.3789 189.906C13.2357 189.568 13.0339 189.275 12.7734 189.027C12.526 188.767 12.2331 188.565 11.8945 188.422C11.556 188.279 11.1914 188.207 10.8008 188.207C10.4102 188.207 10.0456 188.279 9.70703 188.422C9.36849 188.565 9.06901 188.767 8.80859 189.027C8.5612 189.275 8.36589 189.568 8.22266 189.906C8.07943 190.245 8.00781 190.609 8.00781 191V211H2.40234V191C2.40234 189.841 2.61719 188.754 3.04688 187.738C3.48958 186.71 4.08854 185.818 4.84375 185.062C5.61198 184.294 6.50391 183.695 7.51953 183.266C8.54818 182.823 9.64193 182.602 10.8008 182.602C11.8424 182.602 12.8451 182.79 13.8086 183.168C14.7721 183.533 15.638 184.066 16.4062 184.77C17.1745 184.066 18.0339 183.533 18.9844 183.168C19.9479 182.79 20.9505 182.602 21.9922 182.602C23.151 182.602 24.2383 182.823 25.2539 183.266C26.2826 183.695 27.1745 184.294 27.9297 185.062C28.6979 185.818 29.2969 186.71 29.7266 187.738C30.1693 188.754 30.3906 189.841 30.3906 191V211ZM54.8633 211H53.5742L51.5039 208.129C50.9961 208.585 50.4557 209.014 49.8828 209.418C49.3229 209.809 48.7305 210.154 48.1055 210.453C47.4805 210.74 46.8359 210.967 46.1719 211.137C45.5208 211.306 44.8568 211.391 44.1797 211.391C42.7083 211.391 41.3216 211.143 40.0195 210.648C38.7305 210.154 37.5977 209.438 36.6211 208.5C35.6576 207.549 34.8958 206.391 34.3359 205.023C33.776 203.656 33.4961 202.1 33.4961 200.355C33.4961 198.728 33.776 197.237 34.3359 195.883C34.8958 194.516 35.6576 193.344 36.6211 192.367C37.5977 191.391 38.7305 190.635 40.0195 190.102C41.3216 189.555 42.7083 189.281 44.1797 189.281C44.8568 189.281 45.5273 189.366 46.1914 189.535C46.8555 189.704 47.5 189.939 48.125 190.238C48.75 190.538 49.3424 190.889 49.9023 191.293C50.4753 191.697 51.0091 192.133 51.5039 192.602L53.5742 190.121H54.8633V211ZM49.4922 200.355C49.4922 199.626 49.349 198.923 49.0625 198.246C48.7891 197.556 48.4115 196.951 47.9297 196.43C47.4479 195.896 46.8815 195.473 46.2305 195.16C45.5924 194.835 44.9089 194.672 44.1797 194.672C43.4505 194.672 42.7604 194.796 42.1094 195.043C41.4714 195.29 40.9115 195.655 40.4297 196.137C39.9609 196.618 39.5898 197.217 39.3164 197.934C39.043 198.637 38.9062 199.444 38.9062 200.355C38.9062 201.267 39.043 202.081 39.3164 202.797C39.5898 203.5 39.9609 204.092 40.4297 204.574C40.9115 205.056 41.4714 205.421 42.1094 205.668C42.7604 205.915 43.4505 206.039 44.1797 206.039C44.9089 206.039 45.5924 205.883 46.2305 205.57C46.8815 205.245 47.4479 204.822 47.9297 204.301C48.4115 203.767 48.7891 203.161 49.0625 202.484C49.349 201.794 49.4922 201.085 49.4922 200.355ZM64.2773 211H58.9453V190.082H60.2344L61.9922 192.562C62.8516 191.781 63.8281 191.182 64.9219 190.766C66.0156 190.336 67.1484 190.121 68.3203 190.121H73.0273V195.434H68.3203C67.7604 195.434 67.2331 195.538 66.7383 195.746C66.2435 195.954 65.8138 196.241 65.4492 196.605C65.0846 196.97 64.7982 197.4 64.5898 197.895C64.3815 198.389 64.2773 198.917 64.2773 199.477V211ZM93.3984 194.242L89.4922 198.168C89.2969 197.621 89.0299 197.133 88.6914 196.703C88.3529 196.26 87.9688 195.889 87.5391 195.59C87.1224 195.29 86.6667 195.062 86.1719 194.906C85.6771 194.75 85.1693 194.672 84.6484 194.672C83.9193 194.672 83.2292 194.822 82.5781 195.121C81.9401 195.421 81.3802 195.844 80.8984 196.391C80.4297 196.924 80.0586 197.562 79.7852 198.305C79.5117 199.047 79.375 199.867 79.375 200.766C79.375 201.495 79.5117 202.178 79.7852 202.816C80.0586 203.454 80.4297 204.014 80.8984 204.496C81.3802 204.978 81.9401 205.355 82.5781 205.629C83.2292 205.902 83.9193 206.039 84.6484 206.039C85.1693 206.039 85.6706 205.967 86.1523 205.824C86.6341 205.681 87.0833 205.479 87.5 205.219C87.9297 204.945 88.3073 204.62 88.6328 204.242C88.9714 203.852 89.2448 203.422 89.4531 202.953L93.3594 206.879C92.8646 207.582 92.2917 208.214 91.6406 208.773C91.0026 209.333 90.306 209.809 89.5508 210.199C88.8086 210.59 88.0208 210.883 87.1875 211.078C86.3672 211.286 85.5208 211.391 84.6484 211.391C83.1771 211.391 81.7904 211.117 80.4883 210.57C79.1992 210.01 78.0664 209.249 77.0898 208.285C76.1263 207.322 75.3646 206.195 74.8047 204.906C74.2448 203.617 73.9648 202.237 73.9648 200.766C73.9648 199.164 74.2448 197.667 74.8047 196.273C75.3646 194.88 76.1263 193.669 77.0898 192.641C78.0664 191.599 79.1992 190.779 80.4883 190.18C81.7904 189.581 83.1771 189.281 84.6484 189.281C85.5208 189.281 86.3737 189.392 87.207 189.613C88.0534 189.835 88.8542 190.16 89.6094 190.59C90.3776 191.007 91.0807 191.521 91.7188 192.133C92.3698 192.745 92.9297 193.448 93.3984 194.242ZM115.957 211H114.668L112.598 208.129C112.09 208.585 111.549 209.014 110.977 209.418C110.417 209.809 109.824 210.154 109.199 210.453C108.574 210.74 107.93 210.967 107.266 211.137C106.615 211.306 105.951 211.391 105.273 211.391C103.802 211.391 102.415 211.143 101.113 210.648C99.8242 210.154 98.6914 209.438 97.7148 208.5C96.7513 207.549 95.9896 206.391 95.4297 205.023C94.8698 203.656 94.5898 202.1 94.5898 200.355C94.5898 198.728 94.8698 197.237 95.4297 195.883C95.9896 194.516 96.7513 193.344 97.7148 192.367C98.6914 191.391 99.8242 190.635 101.113 190.102C102.415 189.555 103.802 189.281 105.273 189.281C105.951 189.281 106.621 189.366 107.285 189.535C107.949 189.704 108.594 189.939 109.219 190.238C109.844 190.538 110.436 190.889 110.996 191.293C111.569 191.697 112.103 192.133 112.598 192.602L114.668 190.121H115.957V211ZM110.586 200.355C110.586 199.626 110.443 198.923 110.156 198.246C109.883 197.556 109.505 196.951 109.023 196.43C108.542 195.896 107.975 195.473 107.324 195.16C106.686 194.835 106.003 194.672 105.273 194.672C104.544 194.672 103.854 194.796 103.203 195.043C102.565 195.29 102.005 195.655 101.523 196.137C101.055 196.618 100.684 197.217 100.41 197.934C100.137 198.637 100 199.444 100 200.355C100 201.267 100.137 202.081 100.41 202.797C100.684 203.5 101.055 204.092 101.523 204.574C102.005 205.056 102.565 205.421 103.203 205.668C103.854 205.915 104.544 206.039 105.273 206.039C106.003 206.039 106.686 205.883 107.324 205.57C107.975 205.245 108.542 204.822 109.023 204.301C109.505 203.767 109.883 203.161 110.156 202.484C110.443 201.794 110.586 201.085 110.586 200.355ZM118.965 191.391C118.965 190.232 119.186 189.145 119.629 188.129C120.072 187.113 120.671 186.228 121.426 185.473C122.194 184.704 123.086 184.099 124.102 183.656C125.117 183.214 126.204 182.992 127.363 182.992H140.215V188.598H127.363C126.973 188.598 126.608 188.669 126.27 188.812C125.931 188.956 125.632 189.158 125.371 189.418C125.124 189.665 124.928 189.958 124.785 190.297C124.642 190.635 124.57 191 124.57 191.391C124.57 191.781 124.642 192.152 124.785 192.504C124.928 192.842 125.124 193.142 125.371 193.402C125.632 193.65 125.931 193.845 126.27 193.988C126.608 194.132 126.973 194.203 127.363 194.203H132.969C134.128 194.203 135.215 194.424 136.23 194.867C137.259 195.297 138.151 195.896 138.906 196.664C139.674 197.419 140.273 198.311 140.703 199.34C141.146 200.355 141.367 201.443 141.367 202.602C141.367 203.76 141.146 204.848 140.703 205.863C140.273 206.879 139.674 207.771 138.906 208.539C138.151 209.294 137.259 209.893 136.23 210.336C135.215 210.779 134.128 211 132.969 211H120.527V205.395H132.969C133.359 205.395 133.724 205.323 134.062 205.18C134.401 205.036 134.694 204.841 134.941 204.594C135.202 204.333 135.404 204.034 135.547 203.695C135.69 203.357 135.762 202.992 135.762 202.602C135.762 202.211 135.69 201.846 135.547 201.508C135.404 201.169 135.202 200.876 134.941 200.629C134.694 200.368 134.401 200.167 134.062 200.023C133.724 199.88 133.359 199.809 132.969 199.809H127.363C126.204 199.809 125.117 199.587 124.102 199.145C123.086 198.702 122.194 198.103 121.426 197.348C120.671 196.579 120.072 195.688 119.629 194.672C119.186 193.643 118.965 192.549 118.965 191.391ZM164.707 200.355C164.707 201.918 164.427 203.376 163.867 204.73C163.307 206.072 162.546 207.237 161.582 208.227C160.618 209.203 159.486 209.978 158.184 210.551C156.895 211.111 155.508 211.391 154.023 211.391C152.552 211.391 151.165 211.111 149.863 210.551C148.574 209.978 147.441 209.203 146.465 208.227C145.501 207.237 144.74 206.072 144.18 204.73C143.62 203.376 143.34 201.918 143.34 200.355C143.34 198.767 143.62 197.296 144.18 195.941C144.74 194.587 145.501 193.422 146.465 192.445C147.441 191.456 148.574 190.681 149.863 190.121C151.165 189.561 152.552 189.281 154.023 189.281C155.508 189.281 156.895 189.548 158.184 190.082C159.486 190.603 160.618 191.352 161.582 192.328C162.546 193.292 163.307 194.457 163.867 195.824C164.427 197.178 164.707 198.689 164.707 200.355ZM159.336 200.355C159.336 199.496 159.193 198.721 158.906 198.031C158.633 197.328 158.255 196.729 157.773 196.234C157.292 195.727 156.725 195.342 156.074 195.082C155.436 194.809 154.753 194.672 154.023 194.672C153.294 194.672 152.604 194.809 151.953 195.082C151.315 195.342 150.755 195.727 150.273 196.234C149.805 196.729 149.434 197.328 149.16 198.031C148.887 198.721 148.75 199.496 148.75 200.355C148.75 201.163 148.887 201.911 149.16 202.602C149.434 203.292 149.805 203.891 150.273 204.398C150.755 204.906 151.315 205.31 151.953 205.609C152.604 205.896 153.294 206.039 154.023 206.039C154.753 206.039 155.436 205.902 156.074 205.629C156.725 205.355 157.292 204.971 157.773 204.477C158.255 203.982 158.633 203.383 158.906 202.68C159.193 201.977 159.336 201.202 159.336 200.355ZM196.016 211H190.43V191C190.43 190.609 190.352 190.245 190.195 189.906C190.052 189.568 189.85 189.275 189.59 189.027C189.342 188.767 189.049 188.565 188.711 188.422C188.372 188.279 188.008 188.207 187.617 188.207C187.227 188.207 186.862 188.279 186.523 188.422C186.185 188.565 185.885 188.767 185.625 189.027C185.378 189.275 185.182 189.568 185.039 189.906C184.896 190.245 184.824 190.609 184.824 191V211H179.219V191C179.219 190.609 179.147 190.245 179.004 189.906C178.861 189.568 178.659 189.275 178.398 189.027C178.151 188.767 177.858 188.565 177.52 188.422C177.181 188.279 176.816 188.207 176.426 188.207C176.035 188.207 175.671 188.279 175.332 188.422C174.993 188.565 174.694 188.767 174.434 189.027C174.186 189.275 173.991 189.568 173.848 189.906C173.704 190.245 173.633 190.609 173.633 191V211H168.027V191C168.027 189.841 168.242 188.754 168.672 187.738C169.115 186.71 169.714 185.818 170.469 185.062C171.237 184.294 172.129 183.695 173.145 183.266C174.173 182.823 175.267 182.602 176.426 182.602C177.467 182.602 178.47 182.79 179.434 183.168C180.397 183.533 181.263 184.066 182.031 184.77C182.799 184.066 183.659 183.533 184.609 183.168C185.573 182.79 186.576 182.602 187.617 182.602C188.776 182.602 189.863 182.823 190.879 183.266C191.908 183.695 192.799 184.294 193.555 185.062C194.323 185.818 194.922 186.71 195.352 187.738C195.794 188.754 196.016 189.841 196.016 191V211Z" fill="black"/>
</svg>
