<svg width="238" height="41" viewBox="0 0 238 41" fill="none" xmlns="http://www.w3.org/2000/svg">
<path d="M69.3906 40H63.8047V20C63.8047 19.6094 63.7266 19.2448 63.5703 18.9062C63.4271 18.5677 63.2253 18.2747 62.9648 18.0273C62.7174 17.7669 62.4245 17.5651 62.0859 17.4219C61.7474 17.2786 61.3828 17.207 60.9922 17.207C60.6016 17.207 60.237 17.2786 59.8984 17.4219C59.5599 17.5651 59.2604 17.7669 59 18.0273C58.7526 18.2747 58.5573 18.5677 58.4141 18.9062C58.2708 19.2448 58.1992 19.6094 58.1992 20V40H52.5938V20C52.5938 19.6094 52.5221 19.2448 52.3789 18.9062C52.2357 18.5677 52.0339 18.2747 51.7734 18.0273C51.526 17.7669 51.2331 17.5651 50.8945 17.4219C50.556 17.2786 50.1914 17.207 49.8008 17.207C49.4102 17.207 49.0456 17.2786 48.707 17.4219C48.3685 17.5651 48.069 17.7669 47.8086 18.0273C47.5612 18.2747 47.3659 18.5677 47.2227 18.9062C47.0794 19.2448 47.0078 19.6094 47.0078 20V40H41.4023V20C41.4023 18.8411 41.6172 17.7539 42.0469 16.7383C42.4896 15.7096 43.0885 14.8177 43.8438 14.0625C44.612 13.2943 45.5039 12.6953 46.5195 12.2656C47.5482 11.8229 48.6419 11.6016 49.8008 11.6016C50.8424 11.6016 51.8451 11.7904 52.8086 12.168C53.7721 12.5326 54.638 13.0664 55.4062 13.7695C56.1745 13.0664 57.0339 12.5326 57.9844 12.168C58.9479 11.7904 59.9505 11.6016 60.9922 11.6016C62.151 11.6016 63.2383 11.8229 64.2539 12.2656C65.2826 12.6953 66.1745 13.2943 66.9297 14.0625C67.6979 14.8177 68.2969 15.7096 68.7266 16.7383C69.1693 17.7539 69.3906 18.8411 69.3906 20V40ZM93.8633 40H92.5742L90.5039 37.1289C89.9961 37.5846 89.4557 38.0143 88.8828 38.418C88.3229 38.8086 87.7305 39.1536 87.1055 39.4531C86.4805 39.7396 85.8359 39.9674 85.1719 40.1367C84.5208 40.306 83.8568 40.3906 83.1797 40.3906C81.7083 40.3906 80.3216 40.1432 79.0195 39.6484C77.7305 39.1536 76.5977 38.4375 75.6211 37.5C74.6576 36.5495 73.8958 35.3906 73.3359 34.0234C72.776 32.6562 72.4961 31.1003 72.4961 29.3555C72.4961 27.7279 72.776 26.237 73.3359 24.8828C73.8958 23.5156 74.6576 22.3438 75.6211 21.3672C76.5977 20.3906 77.7305 19.6354 79.0195 19.1016C80.3216 18.5547 81.7083 18.2812 83.1797 18.2812C83.8568 18.2812 84.5273 18.3659 85.1914 18.5352C85.8555 18.7044 86.5 18.9388 87.125 19.2383C87.75 19.5378 88.3424 19.8893 88.9023 20.293C89.4753 20.6966 90.0091 21.1328 90.5039 21.6016L92.5742 19.1211H93.8633V40ZM88.4922 29.3555C88.4922 28.6263 88.349 27.9232 88.0625 27.2461C87.7891 26.556 87.4115 25.9505 86.9297 25.4297C86.4479 24.8958 85.8815 24.4727 85.2305 24.1602C84.5924 23.8346 83.9089 23.6719 83.1797 23.6719C82.4505 23.6719 81.7604 23.7956 81.1094 24.043C80.4714 24.2904 79.9115 24.6549 79.4297 25.1367C78.9609 25.6185 78.5898 26.2174 78.3164 26.9336C78.043 27.6367 77.9062 28.444 77.9062 29.3555C77.9062 30.2669 78.043 31.0807 78.3164 31.7969C78.5898 32.5 78.9609 33.0924 79.4297 33.5742C79.9115 34.056 80.4714 34.4206 81.1094 34.668C81.7604 34.9154 82.4505 35.0391 83.1797 35.0391C83.9089 35.0391 84.5924 34.8828 85.2305 34.5703C85.8815 34.2448 86.4479 33.8216 86.9297 33.3008C87.4115 32.7669 87.7891 32.1615 88.0625 31.4844C88.349 30.7943 88.4922 30.0846 88.4922 29.3555ZM103.277 40H97.9453V19.082H99.2344L100.992 21.5625C101.852 20.7812 102.828 20.1823 103.922 19.7656C105.016 19.3359 106.148 19.1211 107.32 19.1211H112.027V24.4336H107.32C106.76 24.4336 106.233 24.5378 105.738 24.7461C105.243 24.9544 104.814 25.2409 104.449 25.6055C104.085 25.9701 103.798 26.3997 103.59 26.8945C103.382 27.3893 103.277 27.9167 103.277 28.4766V40ZM132.398 23.2422L128.492 27.168C128.297 26.6211 128.03 26.1328 127.691 25.7031C127.353 25.2604 126.969 24.8893 126.539 24.5898C126.122 24.2904 125.667 24.0625 125.172 23.9062C124.677 23.75 124.169 23.6719 123.648 23.6719C122.919 23.6719 122.229 23.8216 121.578 24.1211C120.94 24.4206 120.38 24.8438 119.898 25.3906C119.43 25.9245 119.059 26.5625 118.785 27.3047C118.512 28.0469 118.375 28.8672 118.375 29.7656C118.375 30.4948 118.512 31.1784 118.785 31.8164C119.059 32.4544 119.43 33.0143 119.898 33.4961C120.38 33.9779 120.94 34.3555 121.578 34.6289C122.229 34.9023 122.919 35.0391 123.648 35.0391C124.169 35.0391 124.671 34.9674 125.152 34.8242C125.634 34.681 126.083 34.4792 126.5 34.2188C126.93 33.9453 127.307 33.6198 127.633 33.2422C127.971 32.8516 128.245 32.4219 128.453 31.9531L132.359 35.8789C131.865 36.582 131.292 37.2135 130.641 37.7734C130.003 38.3333 129.306 38.8086 128.551 39.1992C127.809 39.5898 127.021 39.8828 126.188 40.0781C125.367 40.2865 124.521 40.3906 123.648 40.3906C122.177 40.3906 120.79 40.1172 119.488 39.5703C118.199 39.0104 117.066 38.2487 116.09 37.2852C115.126 36.3216 114.365 35.1953 113.805 33.9062C113.245 32.6172 112.965 31.237 112.965 29.7656C112.965 28.1641 113.245 26.6667 113.805 25.2734C114.365 23.8802 115.126 22.6693 116.09 21.6406C117.066 20.599 118.199 19.7786 119.488 19.1797C120.79 18.5807 122.177 18.2812 123.648 18.2812C124.521 18.2812 125.374 18.3919 126.207 18.6133C127.053 18.8346 127.854 19.1602 128.609 19.5898C129.378 20.0065 130.081 20.5208 130.719 21.1328C131.37 21.7448 131.93 22.4479 132.398 23.2422ZM154.957 40H153.668L151.598 37.1289C151.09 37.5846 150.549 38.0143 149.977 38.418C149.417 38.8086 148.824 39.1536 148.199 39.4531C147.574 39.7396 146.93 39.9674 146.266 40.1367C145.615 40.306 144.951 40.3906 144.273 40.3906C142.802 40.3906 141.415 40.1432 140.113 39.6484C138.824 39.1536 137.691 38.4375 136.715 37.5C135.751 36.5495 134.99 35.3906 134.43 34.0234C133.87 32.6562 133.59 31.1003 133.59 29.3555C133.59 27.7279 133.87 26.237 134.43 24.8828C134.99 23.5156 135.751 22.3438 136.715 21.3672C137.691 20.3906 138.824 19.6354 140.113 19.1016C141.415 18.5547 142.802 18.2812 144.273 18.2812C144.951 18.2812 145.621 18.3659 146.285 18.5352C146.949 18.7044 147.594 18.9388 148.219 19.2383C148.844 19.5378 149.436 19.8893 149.996 20.293C150.569 20.6966 151.103 21.1328 151.598 21.6016L153.668 19.1211H154.957V40ZM149.586 29.3555C149.586 28.6263 149.443 27.9232 149.156 27.2461C148.883 26.556 148.505 25.9505 148.023 25.4297C147.542 24.8958 146.975 24.4727 146.324 24.1602C145.686 23.8346 145.003 23.6719 144.273 23.6719C143.544 23.6719 142.854 23.7956 142.203 24.043C141.565 24.2904 141.005 24.6549 140.523 25.1367C140.055 25.6185 139.684 26.2174 139.41 26.9336C139.137 27.6367 139 28.444 139 29.3555C139 30.2669 139.137 31.0807 139.41 31.7969C139.684 32.5 140.055 33.0924 140.523 33.5742C141.005 34.056 141.565 34.4206 142.203 34.668C142.854 34.9154 143.544 35.0391 144.273 35.0391C145.003 35.0391 145.686 34.8828 146.324 34.5703C146.975 34.2448 147.542 33.8216 148.023 33.3008C148.505 32.7669 148.883 32.1615 149.156 31.4844C149.443 30.7943 149.586 30.0846 149.586 29.3555ZM157.965 20.3906C157.965 19.2318 158.186 18.1445 158.629 17.1289C159.072 16.1133 159.671 15.2279 160.426 14.4727C161.194 13.7044 162.086 13.099 163.102 12.6562C164.117 12.2135 165.204 11.9922 166.363 11.9922H179.215V17.5977H166.363C165.973 17.5977 165.608 17.6693 165.27 17.8125C164.931 17.9557 164.632 18.1576 164.371 18.418C164.124 18.6654 163.928 18.9583 163.785 19.2969C163.642 19.6354 163.57 20 163.57 20.3906C163.57 20.7812 163.642 21.1523 163.785 21.5039C163.928 21.8424 164.124 22.1419 164.371 22.4023C164.632 22.6497 164.931 22.8451 165.27 22.9883C165.608 23.1315 165.973 23.2031 166.363 23.2031H171.969C173.128 23.2031 174.215 23.4245 175.23 23.8672C176.259 24.2969 177.151 24.8958 177.906 25.6641C178.674 26.4193 179.273 27.3112 179.703 28.3398C180.146 29.3555 180.367 30.4427 180.367 31.6016C180.367 32.7604 180.146 33.8477 179.703 34.8633C179.273 35.8789 178.674 36.7708 177.906 37.5391C177.151 38.2943 176.259 38.8932 175.23 39.3359C174.215 39.7786 173.128 40 171.969 40H159.527V34.3945H171.969C172.359 34.3945 172.724 34.3229 173.062 34.1797C173.401 34.0365 173.694 33.8411 173.941 33.5938C174.202 33.3333 174.404 33.0339 174.547 32.6953C174.69 32.3568 174.762 31.9922 174.762 31.6016C174.762 31.2109 174.69 30.8464 174.547 30.5078C174.404 30.1693 174.202 29.8763 173.941 29.6289C173.694 29.3685 173.401 29.1667 173.062 29.0234C172.724 28.8802 172.359 28.8086 171.969 28.8086H166.363C165.204 28.8086 164.117 28.5872 163.102 28.1445C162.086 27.7018 161.194 27.1029 160.426 26.3477C159.671 25.5794 159.072 24.6875 158.629 23.6719C158.186 22.6432 157.965 21.5495 157.965 20.3906ZM203.707 29.3555C203.707 30.918 203.427 32.3763 202.867 33.7305C202.307 35.0716 201.546 36.237 200.582 37.2266C199.618 38.2031 198.486 38.9779 197.184 39.5508C195.895 40.1107 194.508 40.3906 193.023 40.3906C191.552 40.3906 190.165 40.1107 188.863 39.5508C187.574 38.9779 186.441 38.2031 185.465 37.2266C184.501 36.237 183.74 35.0716 183.18 33.7305C182.62 32.3763 182.34 30.918 182.34 29.3555C182.34 27.7669 182.62 26.2956 183.18 24.9414C183.74 23.5872 184.501 22.4219 185.465 21.4453C186.441 20.4557 187.574 19.681 188.863 19.1211C190.165 18.5612 191.552 18.2812 193.023 18.2812C194.508 18.2812 195.895 18.5482 197.184 19.082C198.486 19.6029 199.618 20.3516 200.582 21.3281C201.546 22.2917 202.307 23.457 202.867 24.8242C203.427 26.1784 203.707 27.6888 203.707 29.3555ZM198.336 29.3555C198.336 28.4961 198.193 27.7214 197.906 27.0312C197.633 26.3281 197.255 25.7292 196.773 25.2344C196.292 24.7266 195.725 24.3424 195.074 24.082C194.436 23.8086 193.753 23.6719 193.023 23.6719C192.294 23.6719 191.604 23.8086 190.953 24.082C190.315 24.3424 189.755 24.7266 189.273 25.2344C188.805 25.7292 188.434 26.3281 188.16 27.0312C187.887 27.7214 187.75 28.4961 187.75 29.3555C187.75 30.1628 187.887 30.9115 188.16 31.6016C188.434 32.2917 188.805 32.8906 189.273 33.3984C189.755 33.9062 190.315 34.3099 190.953 34.6094C191.604 34.8958 192.294 35.0391 193.023 35.0391C193.753 35.0391 194.436 34.9023 195.074 34.6289C195.725 34.3555 196.292 33.9714 196.773 33.4766C197.255 32.9818 197.633 32.3828 197.906 31.6797C198.193 30.9766 198.336 30.2018 198.336 29.3555ZM235.016 40H229.43V20C229.43 19.6094 229.352 19.2448 229.195 18.9062C229.052 18.5677 228.85 18.2747 228.59 18.0273C228.342 17.7669 228.049 17.5651 227.711 17.4219C227.372 17.2786 227.008 17.207 226.617 17.207C226.227 17.207 225.862 17.2786 225.523 17.4219C225.185 17.5651 224.885 17.7669 224.625 18.0273C224.378 18.2747 224.182 18.5677 224.039 18.9062C223.896 19.2448 223.824 19.6094 223.824 20V40H218.219V20C218.219 19.6094 218.147 19.2448 218.004 18.9062C217.861 18.5677 217.659 18.2747 217.398 18.0273C217.151 17.7669 216.858 17.5651 216.52 17.4219C216.181 17.2786 215.816 17.207 215.426 17.207C215.035 17.207 214.671 17.2786 214.332 17.4219C213.993 17.5651 213.694 17.7669 213.434 18.0273C213.186 18.2747 212.991 18.5677 212.848 18.9062C212.704 19.2448 212.633 19.6094 212.633 20V40H207.027V20C207.027 18.8411 207.242 17.7539 207.672 16.7383C208.115 15.7096 208.714 14.8177 209.469 14.0625C210.237 13.2943 211.129 12.6953 212.145 12.2656C213.173 11.8229 214.267 11.6016 215.426 11.6016C216.467 11.6016 217.47 11.7904 218.434 12.168C219.397 12.5326 220.263 13.0664 221.031 13.7695C221.799 13.0664 222.659 12.5326 223.609 12.168C224.573 11.7904 225.576 11.6016 226.617 11.6016C227.776 11.6016 228.863 11.8229 229.879 12.2656C230.908 12.6953 231.799 13.2943 232.555 14.0625C233.323 14.8177 233.922 15.7096 234.352 16.7383C234.794 17.7539 235.016 18.8411 235.016 20V40Z" fill="#9B59B6"/>
<path d="M36.5625 18.125H35.1562C34.3793 18.125 33.75 18.6145 33.75 19.2188V22.5C33.75 27.6133 28.0819 31.7162 21.3759 31.2076C15.5312 30.764 11.25 26.6774 11.25 22.1104V19.2188C11.25 18.6145 10.6207 18.125 9.84375 18.125H8.4375C7.66055 18.125 7.03125 18.6145 7.03125 19.2188V21.9641C7.03125 28.0918 12.6536 33.5544 20.3906 34.3843V36.7188H15.4688C14.6918 36.7188 14.0625 37.2082 14.0625 37.8125V38.9062C14.0625 39.5105 14.6918 40 15.4688 40H29.5312C30.3082 40 30.9375 39.5105 30.9375 38.9062V37.8125C30.9375 37.2082 30.3082 36.7188 29.5312 36.7188H24.6094V34.4103C32.1425 33.6063 37.9688 28.5771 37.9688 22.5V19.2188C37.9688 18.6145 37.3395 18.125 36.5625 18.125ZM22.5 29.0625C27.16 29.0625 30.9375 26.1244 30.9375 22.5H23.4378C22.9201 22.5 22.5 22.2553 22.5 21.9531V20.8594C22.5 20.5572 22.9201 20.3125 23.4378 20.3125H30.9375V18.125H23.4378C22.9201 18.125 22.5 17.8803 22.5 17.5781V16.4844C22.5 16.1822 22.9201 15.9375 23.4378 15.9375H30.9375V13.75H23.4378C22.9201 13.75 22.5 13.5053 22.5 13.2031V12.1094C22.5 11.8072 22.9201 11.5625 23.4378 11.5625H30.9375C30.9375 7.93809 27.16 5 22.5 5C17.84 5 14.0625 7.93809 14.0625 11.5625V22.5C14.0625 26.1244 17.84 29.0625 22.5 29.0625Z" fill="#9B59B6"/>
</svg>
