<svg width="31" height="31" viewBox="0 0 31 31" fill="none" xmlns="http://www.w3.org/2000/svg">
<path d="M30.5762 26.7944L24.5396 20.76C24.2672 20.4877 23.8979 20.3364 23.5104 20.3364H22.5234C24.1945 18.1998 25.1875 15.5125 25.1875 12.5892C25.1875 5.63486 19.5506 0 12.5938 0C5.63691 0 0 5.63486 0 12.5892C0 19.5435 5.63691 25.1783 12.5938 25.1783C15.5182 25.1783 18.2064 24.1857 20.3438 22.5152V23.5018C20.3438 23.8892 20.4951 24.2584 20.7676 24.5307L26.8041 30.5651C27.3732 31.134 28.2936 31.134 28.8566 30.5651L30.5701 28.8522C31.1393 28.2833 31.1393 27.3633 30.5762 26.7944ZM12.5938 20.3364C8.31309 20.3364 4.84375 16.8743 4.84375 12.5892C4.84375 8.31006 8.30703 4.84199 12.5938 4.84199C16.8744 4.84199 20.3438 8.30401 20.3438 12.5892C20.3438 16.8683 16.8805 20.3364 12.5938 20.3364Z" fill="white"/>
</svg>
