<svg width="183" height="20" viewBox="0 0 183 20" fill="none" xmlns="http://www.w3.org/2000/svg">
<path d="M31.9424 4.20312H36.4688C37.4414 4.20312 38.2705 4.34961 38.9561 4.64258C39.6416 4.93555 40.166 5.36914 40.5293 5.94336C40.8984 6.51172 41.083 7.21484 41.083 8.05273C41.083 8.69141 40.9658 9.25391 40.7314 9.74023C40.4971 10.2266 40.166 10.6367 39.7383 10.9707C39.3105 11.2988 38.8008 11.5537 38.209 11.7354L37.541 12.0605H33.4717L33.4541 10.3115H36.5039C37.0312 10.3115 37.4707 10.2178 37.8223 10.0303C38.1738 9.84277 38.4375 9.58789 38.6133 9.26562C38.7949 8.9375 38.8857 8.56836 38.8857 8.1582C38.8857 7.71289 38.7979 7.32617 38.6221 6.99805C38.4521 6.66406 38.1885 6.40918 37.8311 6.2334C37.4736 6.05176 37.0195 5.96094 36.4688 5.96094H34.1484V17H31.9424V4.20312ZM39.2461 17L36.2402 11.252L38.5518 11.2432L41.6016 16.8857V17H39.2461ZM47.2617 17.1758C46.5586 17.1758 45.9229 17.0615 45.3545 16.833C44.792 16.5986 44.3115 16.2734 43.9131 15.8574C43.5205 15.4414 43.2188 14.9521 43.0078 14.3896C42.7969 13.8271 42.6914 13.2207 42.6914 12.5703V12.2188C42.6914 11.4746 42.7998 10.8008 43.0166 10.1973C43.2334 9.59375 43.5352 9.07812 43.9219 8.65039C44.3086 8.2168 44.7656 7.88574 45.293 7.65723C45.8203 7.42871 46.3916 7.31445 47.0068 7.31445C47.6865 7.31445 48.2812 7.42871 48.791 7.65723C49.3008 7.88574 49.7227 8.20801 50.0566 8.62402C50.3965 9.03418 50.6484 9.52344 50.8125 10.0918C50.9824 10.6602 51.0674 11.2871 51.0674 11.9727V12.8779H43.7197V11.3574H48.9756V11.1904C48.9639 10.8096 48.8877 10.4521 48.7471 10.1182C48.6123 9.78418 48.4043 9.51465 48.123 9.30957C47.8418 9.10449 47.4668 9.00195 46.998 9.00195C46.6465 9.00195 46.333 9.07812 46.0576 9.23047C45.7881 9.37695 45.5625 9.59082 45.3809 9.87207C45.1992 10.1533 45.0586 10.4932 44.959 10.8916C44.8652 11.2842 44.8184 11.7266 44.8184 12.2188V12.5703C44.8184 12.9863 44.874 13.373 44.9854 13.7305C45.1025 14.082 45.2725 14.3896 45.4951 14.6533C45.7178 14.917 45.9873 15.125 46.3037 15.2773C46.6201 15.4238 46.9805 15.4971 47.3848 15.4971C47.8945 15.4971 48.3486 15.3945 48.7471 15.1895C49.1455 14.9844 49.4912 14.6943 49.7842 14.3193L50.9004 15.4004C50.6953 15.6992 50.4287 15.9863 50.1006 16.2617C49.7725 16.5312 49.3711 16.751 48.8965 16.9209C48.4277 17.0908 47.8828 17.1758 47.2617 17.1758ZM58.0547 14.4248C58.0547 14.2139 58.002 14.0234 57.8965 13.8535C57.791 13.6777 57.5889 13.5195 57.29 13.3789C56.9971 13.2383 56.5635 13.1094 55.9893 12.9922C55.4854 12.8809 55.0225 12.749 54.6006 12.5967C54.1846 12.4385 53.8271 12.248 53.5283 12.0254C53.2295 11.8027 52.998 11.5391 52.834 11.2344C52.6699 10.9297 52.5879 10.5781 52.5879 10.1797C52.5879 9.79297 52.6729 9.42676 52.8428 9.08105C53.0127 8.73535 53.2559 8.43066 53.5723 8.16699C53.8887 7.90332 54.2725 7.69531 54.7236 7.54297C55.1807 7.39063 55.6904 7.31445 56.2529 7.31445C57.0498 7.31445 57.7324 7.44922 58.3008 7.71875C58.875 7.98242 59.3145 8.34277 59.6191 8.7998C59.9238 9.25098 60.0762 9.76074 60.0762 10.3291H57.958C57.958 10.0771 57.8936 9.84277 57.7646 9.62598C57.6416 9.40332 57.4541 9.22461 57.2021 9.08984C56.9502 8.94922 56.6338 8.87891 56.2529 8.87891C55.8896 8.87891 55.5879 8.9375 55.3477 9.05469C55.1133 9.16602 54.9375 9.3125 54.8203 9.49414C54.709 9.67578 54.6533 9.875 54.6533 10.0918C54.6533 10.25 54.6826 10.3936 54.7412 10.5225C54.8057 10.6455 54.9111 10.7598 55.0576 10.8652C55.2041 10.9648 55.4033 11.0586 55.6553 11.1465C55.9131 11.2344 56.2354 11.3193 56.6221 11.4014C57.3486 11.5537 57.9727 11.75 58.4941 11.9902C59.0215 12.2246 59.4258 12.5293 59.707 12.9043C59.9883 13.2734 60.1289 13.7422 60.1289 14.3105C60.1289 14.7324 60.0381 15.1191 59.8564 15.4707C59.6807 15.8164 59.4229 16.1182 59.083 16.376C58.7432 16.6279 58.3359 16.8242 57.8613 16.9648C57.3926 17.1055 56.8652 17.1758 56.2793 17.1758C55.418 17.1758 54.6885 17.0234 54.0908 16.7188C53.4932 16.4082 53.0391 16.0127 52.7285 15.5322C52.4238 15.0459 52.2715 14.542 52.2715 14.0205H54.3193C54.3428 14.4131 54.4512 14.7266 54.6445 14.9609C54.8438 15.1895 55.0898 15.3564 55.3828 15.4619C55.6816 15.5615 55.9893 15.6113 56.3057 15.6113C56.6865 15.6113 57.0059 15.5615 57.2637 15.4619C57.5215 15.3564 57.7178 15.2158 57.8525 15.04C57.9873 14.8584 58.0547 14.6533 58.0547 14.4248ZM66.1758 17.1758C65.4727 17.1758 64.8369 17.0615 64.2686 16.833C63.7061 16.5986 63.2256 16.2734 62.8271 15.8574C62.4346 15.4414 62.1328 14.9521 61.9219 14.3896C61.7109 13.8271 61.6055 13.2207 61.6055 12.5703V12.2188C61.6055 11.4746 61.7139 10.8008 61.9307 10.1973C62.1475 9.59375 62.4492 9.07812 62.8359 8.65039C63.2227 8.2168 63.6797 7.88574 64.207 7.65723C64.7344 7.42871 65.3057 7.31445 65.9209 7.31445C66.6006 7.31445 67.1953 7.42871 67.7051 7.65723C68.2148 7.88574 68.6367 8.20801 68.9707 8.62402C69.3105 9.03418 69.5625 9.52344 69.7266 10.0918C69.8965 10.6602 69.9814 11.2871 69.9814 11.9727V12.8779H62.6338V11.3574H67.8896V11.1904C67.8779 10.8096 67.8018 10.4521 67.6611 10.1182C67.5264 9.78418 67.3184 9.51465 67.0371 9.30957C66.7559 9.10449 66.3809 9.00195 65.9121 9.00195C65.5605 9.00195 65.2471 9.07812 64.9717 9.23047C64.7021 9.37695 64.4766 9.59082 64.2949 9.87207C64.1133 10.1533 63.9727 10.4932 63.873 10.8916C63.7793 11.2842 63.7324 11.7266 63.7324 12.2188V12.5703C63.7324 12.9863 63.7881 13.373 63.8994 13.7305C64.0166 14.082 64.1865 14.3896 64.4092 14.6533C64.6318 14.917 64.9014 15.125 65.2178 15.2773C65.5342 15.4238 65.8945 15.4971 66.2988 15.4971C66.8086 15.4971 67.2627 15.3945 67.6611 15.1895C68.0596 14.9844 68.4053 14.6943 68.6982 14.3193L69.8145 15.4004C69.6094 15.6992 69.3428 15.9863 69.0146 16.2617C68.6865 16.5312 68.2852 16.751 67.8105 16.9209C67.3418 17.0908 66.7969 17.1758 66.1758 17.1758ZM73.7607 9.30078V17H71.6426V7.49023H73.6641L73.7607 9.30078ZM76.6699 7.42871L76.6523 9.39746C76.5234 9.37402 76.3828 9.35645 76.2305 9.34473C76.084 9.33301 75.9375 9.32715 75.791 9.32715C75.4277 9.32715 75.1084 9.37988 74.833 9.48535C74.5576 9.58496 74.3262 9.73145 74.1387 9.9248C73.957 10.1123 73.8164 10.3408 73.7168 10.6104C73.6172 10.8799 73.5586 11.1816 73.541 11.5156L73.0576 11.5508C73.0576 10.9531 73.1162 10.3994 73.2334 9.88965C73.3506 9.37988 73.5264 8.93164 73.7607 8.54492C74.001 8.1582 74.2998 7.85645 74.6572 7.63965C75.0205 7.42285 75.4395 7.31445 75.9141 7.31445C76.043 7.31445 76.1807 7.32617 76.3271 7.34961C76.4795 7.37305 76.5938 7.39941 76.6699 7.42871ZM81.249 15.3213L83.5781 7.49023H85.7754L82.4707 17H81.0996L81.249 15.3213ZM79.4648 7.49023L81.8379 15.3564L81.9521 17H80.5811L77.2588 7.49023H79.4648ZM92.3057 15.0928V10.5576C92.3057 10.2178 92.2441 9.9248 92.1211 9.67871C91.998 9.43262 91.8105 9.24219 91.5586 9.10742C91.3125 8.97266 91.002 8.90527 90.627 8.90527C90.2812 8.90527 89.9824 8.96387 89.7305 9.08105C89.4785 9.19824 89.2822 9.35645 89.1416 9.55566C89.001 9.75488 88.9307 9.98047 88.9307 10.2324H86.8213C86.8213 9.85742 86.9121 9.49414 87.0938 9.14258C87.2754 8.79102 87.5391 8.47754 87.8848 8.20215C88.2305 7.92676 88.6436 7.70996 89.124 7.55176C89.6045 7.39355 90.1436 7.31445 90.7412 7.31445C91.4561 7.31445 92.0889 7.43457 92.6396 7.6748C93.1963 7.91504 93.6328 8.27832 93.9492 8.76465C94.2715 9.24512 94.4326 9.84863 94.4326 10.5752V14.8027C94.4326 15.2363 94.4619 15.626 94.5205 15.9717C94.585 16.3115 94.6758 16.6074 94.793 16.8594V17H92.6221C92.5225 16.7715 92.4434 16.4814 92.3848 16.1299C92.332 15.7725 92.3057 15.4268 92.3057 15.0928ZM92.6133 11.2168L92.6309 12.5264H91.1104C90.7178 12.5264 90.3721 12.5645 90.0732 12.6406C89.7744 12.7109 89.5254 12.8164 89.3262 12.957C89.127 13.0977 88.9775 13.2676 88.8779 13.4668C88.7783 13.666 88.7285 13.8916 88.7285 14.1436C88.7285 14.3955 88.7871 14.627 88.9043 14.8379C89.0215 15.043 89.1914 15.2041 89.4141 15.3213C89.6426 15.4385 89.918 15.4971 90.2402 15.4971C90.6738 15.4971 91.0518 15.4092 91.374 15.2334C91.7021 15.0518 91.96 14.832 92.1475 14.5742C92.335 14.3105 92.4346 14.0615 92.4463 13.8271L93.1318 14.7676C93.0615 15.0078 92.9414 15.2656 92.7715 15.541C92.6016 15.8164 92.3789 16.0801 92.1035 16.332C91.834 16.5781 91.5088 16.7803 91.1279 16.9385C90.7529 17.0967 90.3193 17.1758 89.8271 17.1758C89.2061 17.1758 88.6523 17.0527 88.166 16.8066C87.6797 16.5547 87.2988 16.2178 87.0234 15.7959C86.748 15.3682 86.6104 14.8848 86.6104 14.3457C86.6104 13.8418 86.7041 13.3965 86.8916 13.0098C87.085 12.6172 87.3662 12.2891 87.7354 12.0254C88.1104 11.7617 88.5674 11.5625 89.1064 11.4277C89.6455 11.2871 90.2607 11.2168 90.9521 11.2168H92.6133ZM105.015 15.4883C105.36 15.4883 105.671 15.4209 105.946 15.2861C106.228 15.1455 106.453 14.9521 106.623 14.7061C106.799 14.46 106.896 14.1758 106.913 13.8535H108.908C108.896 14.4688 108.715 15.0283 108.363 15.5322C108.012 16.0361 107.546 16.4375 106.966 16.7363C106.386 17.0293 105.744 17.1758 105.041 17.1758C104.314 17.1758 103.682 17.0527 103.143 16.8066C102.604 16.5547 102.155 16.209 101.798 15.7695C101.44 15.3301 101.171 14.8232 100.989 14.249C100.813 13.6748 100.726 13.0596 100.726 12.4033V12.0957C100.726 11.4395 100.813 10.8242 100.989 10.25C101.171 9.66992 101.44 9.16016 101.798 8.7207C102.155 8.28125 102.604 7.93848 103.143 7.69238C103.682 7.44043 104.312 7.31445 105.032 7.31445C105.794 7.31445 106.462 7.4668 107.036 7.77148C107.61 8.07031 108.062 8.48926 108.39 9.02832C108.724 9.56152 108.896 10.1826 108.908 10.8916H106.913C106.896 10.54 106.808 10.2236 106.649 9.94238C106.497 9.65527 106.28 9.42676 105.999 9.25684C105.724 9.08691 105.393 9.00195 105.006 9.00195C104.578 9.00195 104.224 9.08984 103.942 9.26562C103.661 9.43555 103.441 9.66992 103.283 9.96875C103.125 10.2617 103.011 10.5928 102.94 10.9619C102.876 11.3252 102.844 11.7031 102.844 12.0957V12.4033C102.844 12.7959 102.876 13.1768 102.94 13.5459C103.005 13.915 103.116 14.2461 103.274 14.5391C103.438 14.8262 103.661 15.0576 103.942 15.2334C104.224 15.4033 104.581 15.4883 105.015 15.4883ZM115.896 15.0928V10.5576C115.896 10.2178 115.834 9.9248 115.711 9.67871C115.588 9.43262 115.4 9.24219 115.148 9.10742C114.902 8.97266 114.592 8.90527 114.217 8.90527C113.871 8.90527 113.572 8.96387 113.32 9.08105C113.068 9.19824 112.872 9.35645 112.731 9.55566C112.591 9.75488 112.521 9.98047 112.521 10.2324H110.411C110.411 9.85742 110.502 9.49414 110.684 9.14258C110.865 8.79102 111.129 8.47754 111.475 8.20215C111.82 7.92676 112.233 7.70996 112.714 7.55176C113.194 7.39355 113.733 7.31445 114.331 7.31445C115.046 7.31445 115.679 7.43457 116.229 7.6748C116.786 7.91504 117.223 8.27832 117.539 8.76465C117.861 9.24512 118.022 9.84863 118.022 10.5752V14.8027C118.022 15.2363 118.052 15.626 118.11 15.9717C118.175 16.3115 118.266 16.6074 118.383 16.8594V17H116.212C116.112 16.7715 116.033 16.4814 115.975 16.1299C115.922 15.7725 115.896 15.4268 115.896 15.0928ZM116.203 11.2168L116.221 12.5264H114.7C114.308 12.5264 113.962 12.5645 113.663 12.6406C113.364 12.7109 113.115 12.8164 112.916 12.957C112.717 13.0977 112.567 13.2676 112.468 13.4668C112.368 13.666 112.318 13.8916 112.318 14.1436C112.318 14.3955 112.377 14.627 112.494 14.8379C112.611 15.043 112.781 15.2041 113.004 15.3213C113.232 15.4385 113.508 15.4971 113.83 15.4971C114.264 15.4971 114.642 15.4092 114.964 15.2334C115.292 15.0518 115.55 14.832 115.737 14.5742C115.925 14.3105 116.024 14.0615 116.036 13.8271L116.722 14.7676C116.651 15.0078 116.531 15.2656 116.361 15.541C116.191 15.8164 115.969 16.0801 115.693 16.332C115.424 16.5781 115.099 16.7803 114.718 16.9385C114.343 17.0967 113.909 17.1758 113.417 17.1758C112.796 17.1758 112.242 17.0527 111.756 16.8066C111.27 16.5547 110.889 16.2178 110.613 15.7959C110.338 15.3682 110.2 14.8848 110.2 14.3457C110.2 13.8418 110.294 13.3965 110.481 13.0098C110.675 12.6172 110.956 12.2891 111.325 12.0254C111.7 11.7617 112.157 11.5625 112.696 11.4277C113.235 11.2871 113.851 11.2168 114.542 11.2168H116.203ZM122.338 9.52051V17H120.22V7.49023H122.215L122.338 9.52051ZM121.96 11.8936L121.274 11.8848C121.28 11.2109 121.374 10.5928 121.556 10.0303C121.743 9.46777 122.001 8.98438 122.329 8.58008C122.663 8.17578 123.062 7.86523 123.524 7.64844C123.987 7.42578 124.503 7.31445 125.071 7.31445C125.528 7.31445 125.941 7.37891 126.311 7.50781C126.686 7.63086 127.005 7.83301 127.269 8.11426C127.538 8.39551 127.743 8.76172 127.884 9.21289C128.024 9.6582 128.095 10.2061 128.095 10.8564V17H125.968V10.8477C125.968 10.3906 125.9 10.0303 125.766 9.7666C125.637 9.49707 125.446 9.30664 125.194 9.19531C124.948 9.07812 124.641 9.01953 124.271 9.01953C123.908 9.01953 123.583 9.0957 123.296 9.24805C123.009 9.40039 122.766 9.6084 122.566 9.87207C122.373 10.1357 122.224 10.4404 122.118 10.7861C122.013 11.1318 121.96 11.501 121.96 11.8936ZM134.142 15.4883C134.487 15.4883 134.798 15.4209 135.073 15.2861C135.354 15.1455 135.58 14.9521 135.75 14.7061C135.926 14.46 136.022 14.1758 136.04 13.8535H138.035C138.023 14.4688 137.842 15.0283 137.49 15.5322C137.139 16.0361 136.673 16.4375 136.093 16.7363C135.513 17.0293 134.871 17.1758 134.168 17.1758C133.441 17.1758 132.809 17.0527 132.27 16.8066C131.73 16.5547 131.282 16.209 130.925 15.7695C130.567 15.3301 130.298 14.8232 130.116 14.249C129.94 13.6748 129.853 13.0596 129.853 12.4033V12.0957C129.853 11.4395 129.94 10.8242 130.116 10.25C130.298 9.66992 130.567 9.16016 130.925 8.7207C131.282 8.28125 131.73 7.93848 132.27 7.69238C132.809 7.44043 133.438 7.31445 134.159 7.31445C134.921 7.31445 135.589 7.4668 136.163 7.77148C136.737 8.07031 137.188 8.48926 137.517 9.02832C137.851 9.56152 138.023 10.1826 138.035 10.8916H136.04C136.022 10.54 135.935 10.2236 135.776 9.94238C135.624 9.65527 135.407 9.42676 135.126 9.25684C134.851 9.08691 134.52 9.00195 134.133 9.00195C133.705 9.00195 133.351 9.08984 133.069 9.26562C132.788 9.43555 132.568 9.66992 132.41 9.96875C132.252 10.2617 132.138 10.5928 132.067 10.9619C132.003 11.3252 131.971 11.7031 131.971 12.0957V12.4033C131.971 12.7959 132.003 13.1768 132.067 13.5459C132.132 13.915 132.243 14.2461 132.401 14.5391C132.565 14.8262 132.788 15.0576 133.069 15.2334C133.351 15.4033 133.708 15.4883 134.142 15.4883ZM143.854 17.1758C143.15 17.1758 142.515 17.0615 141.946 16.833C141.384 16.5986 140.903 16.2734 140.505 15.8574C140.112 15.4414 139.811 14.9521 139.6 14.3896C139.389 13.8271 139.283 13.2207 139.283 12.5703V12.2188C139.283 11.4746 139.392 10.8008 139.608 10.1973C139.825 9.59375 140.127 9.07812 140.514 8.65039C140.9 8.2168 141.357 7.88574 141.885 7.65723C142.412 7.42871 142.983 7.31445 143.599 7.31445C144.278 7.31445 144.873 7.42871 145.383 7.65723C145.893 7.88574 146.314 8.20801 146.648 8.62402C146.988 9.03418 147.24 9.52344 147.404 10.0918C147.574 10.6602 147.659 11.2871 147.659 11.9727V12.8779H140.312V11.3574H145.567V11.1904C145.556 10.8096 145.479 10.4521 145.339 10.1182C145.204 9.78418 144.996 9.51465 144.715 9.30957C144.434 9.10449 144.059 9.00195 143.59 9.00195C143.238 9.00195 142.925 9.07812 142.649 9.23047C142.38 9.37695 142.154 9.59082 141.973 9.87207C141.791 10.1533 141.65 10.4932 141.551 10.8916C141.457 11.2842 141.41 11.7266 141.41 12.2188V12.5703C141.41 12.9863 141.466 13.373 141.577 13.7305C141.694 14.082 141.864 14.3896 142.087 14.6533C142.31 14.917 142.579 15.125 142.896 15.2773C143.212 15.4238 143.572 15.4971 143.977 15.4971C144.486 15.4971 144.94 15.3945 145.339 15.1895C145.737 14.9844 146.083 14.6943 146.376 14.3193L147.492 15.4004C147.287 15.6992 147.021 15.9863 146.692 16.2617C146.364 16.5312 145.963 16.751 145.488 16.9209C145.02 17.0908 144.475 17.1758 143.854 17.1758ZM151.579 3.5V17H149.452V3.5H151.579ZM159.261 15.0928V10.5576C159.261 10.2178 159.199 9.9248 159.076 9.67871C158.953 9.43262 158.766 9.24219 158.514 9.10742C158.268 8.97266 157.957 8.90527 157.582 8.90527C157.236 8.90527 156.938 8.96387 156.686 9.08105C156.434 9.19824 156.237 9.35645 156.097 9.55566C155.956 9.75488 155.886 9.98047 155.886 10.2324H153.776C153.776 9.85742 153.867 9.49414 154.049 9.14258C154.23 8.79102 154.494 8.47754 154.84 8.20215C155.186 7.92676 155.599 7.70996 156.079 7.55176C156.56 7.39355 157.099 7.31445 157.696 7.31445C158.411 7.31445 159.044 7.43457 159.595 7.6748C160.151 7.91504 160.588 8.27832 160.904 8.76465C161.227 9.24512 161.388 9.84863 161.388 10.5752V14.8027C161.388 15.2363 161.417 15.626 161.476 15.9717C161.54 16.3115 161.631 16.6074 161.748 16.8594V17H159.577C159.478 16.7715 159.398 16.4814 159.34 16.1299C159.287 15.7725 159.261 15.4268 159.261 15.0928ZM159.568 11.2168L159.586 12.5264H158.065C157.673 12.5264 157.327 12.5645 157.028 12.6406C156.729 12.7109 156.48 12.8164 156.281 12.957C156.082 13.0977 155.933 13.2676 155.833 13.4668C155.733 13.666 155.684 13.8916 155.684 14.1436C155.684 14.3955 155.742 14.627 155.859 14.8379C155.977 15.043 156.146 15.2041 156.369 15.3213C156.598 15.4385 156.873 15.4971 157.195 15.4971C157.629 15.4971 158.007 15.4092 158.329 15.2334C158.657 15.0518 158.915 14.832 159.103 14.5742C159.29 14.3105 159.39 14.0615 159.401 13.8271L160.087 14.7676C160.017 15.0078 159.896 15.2656 159.727 15.541C159.557 15.8164 159.334 16.0801 159.059 16.332C158.789 16.5781 158.464 16.7803 158.083 16.9385C157.708 17.0967 157.274 17.1758 156.782 17.1758C156.161 17.1758 155.607 17.0527 155.121 16.8066C154.635 16.5547 154.254 16.2178 153.979 15.7959C153.703 15.3682 153.565 14.8848 153.565 14.3457C153.565 13.8418 153.659 13.3965 153.847 13.0098C154.04 12.6172 154.321 12.2891 154.69 12.0254C155.065 11.7617 155.522 11.5625 156.062 11.4277C156.601 11.2871 157.216 11.2168 157.907 11.2168H159.568ZM169.403 15.0312V3.5H171.53V17H169.605L169.403 15.0312ZM163.216 12.3506V12.166C163.216 11.4453 163.301 10.7891 163.471 10.1973C163.641 9.59961 163.887 9.08691 164.209 8.65918C164.531 8.22559 164.924 7.89453 165.387 7.66602C165.85 7.43164 166.371 7.31445 166.951 7.31445C167.525 7.31445 168.029 7.42578 168.463 7.64844C168.896 7.87109 169.266 8.19043 169.57 8.60645C169.875 9.0166 170.118 9.50879 170.3 10.083C170.481 10.6514 170.61 11.2842 170.687 11.9814V12.5703C170.61 13.25 170.481 13.8711 170.3 14.4336C170.118 14.9961 169.875 15.4824 169.57 15.8926C169.266 16.3027 168.894 16.6191 168.454 16.8418C168.021 17.0645 167.514 17.1758 166.934 17.1758C166.359 17.1758 165.841 17.0557 165.378 16.8154C164.921 16.5752 164.531 16.2383 164.209 15.8047C163.887 15.3711 163.641 14.8613 163.471 14.2754C163.301 13.6836 163.216 13.042 163.216 12.3506ZM165.334 12.166V12.3506C165.334 12.7842 165.372 13.1885 165.448 13.5635C165.53 13.9385 165.656 14.2695 165.826 14.5566C165.996 14.8379 166.216 15.0605 166.485 15.2246C166.761 15.3828 167.089 15.4619 167.47 15.4619C167.95 15.4619 168.346 15.3564 168.656 15.1455C168.967 14.9346 169.21 14.6504 169.386 14.293C169.567 13.9297 169.69 13.5254 169.755 13.0801V11.4893C169.72 11.1436 169.646 10.8213 169.535 10.5225C169.43 10.2236 169.286 9.96289 169.104 9.74023C168.923 9.51172 168.697 9.33594 168.428 9.21289C168.164 9.08398 167.851 9.01953 167.487 9.01953C167.101 9.01953 166.772 9.10156 166.503 9.26562C166.233 9.42969 166.011 9.65527 165.835 9.94238C165.665 10.2295 165.539 10.5635 165.457 10.9443C165.375 11.3252 165.334 11.7324 165.334 12.166ZM179.106 15.0928V10.5576C179.106 10.2178 179.045 9.9248 178.922 9.67871C178.799 9.43262 178.611 9.24219 178.359 9.10742C178.113 8.97266 177.803 8.90527 177.428 8.90527C177.082 8.90527 176.783 8.96387 176.531 9.08105C176.279 9.19824 176.083 9.35645 175.942 9.55566C175.802 9.75488 175.731 9.98047 175.731 10.2324H173.622C173.622 9.85742 173.713 9.49414 173.895 9.14258C174.076 8.79102 174.34 8.47754 174.686 8.20215C175.031 7.92676 175.444 7.70996 175.925 7.55176C176.405 7.39355 176.944 7.31445 177.542 7.31445C178.257 7.31445 178.89 7.43457 179.44 7.6748C179.997 7.91504 180.434 8.27832 180.75 8.76465C181.072 9.24512 181.233 9.84863 181.233 10.5752V14.8027C181.233 15.2363 181.263 15.626 181.321 15.9717C181.386 16.3115 181.477 16.6074 181.594 16.8594V17H179.423C179.323 16.7715 179.244 16.4814 179.186 16.1299C179.133 15.7725 179.106 15.4268 179.106 15.0928ZM179.414 11.2168L179.432 12.5264H177.911C177.519 12.5264 177.173 12.5645 176.874 12.6406C176.575 12.7109 176.326 12.8164 176.127 12.957C175.928 13.0977 175.778 13.2676 175.679 13.4668C175.579 13.666 175.529 13.8916 175.529 14.1436C175.529 14.3955 175.588 14.627 175.705 14.8379C175.822 15.043 175.992 15.2041 176.215 15.3213C176.443 15.4385 176.719 15.4971 177.041 15.4971C177.475 15.4971 177.853 15.4092 178.175 15.2334C178.503 15.0518 178.761 14.832 178.948 14.5742C179.136 14.3105 179.235 14.0615 179.247 13.8271L179.933 14.7676C179.862 15.0078 179.742 15.2656 179.572 15.541C179.402 15.8164 179.18 16.0801 178.904 16.332C178.635 16.5781 178.31 16.7803 177.929 16.9385C177.554 17.0967 177.12 17.1758 176.628 17.1758C176.007 17.1758 175.453 17.0527 174.967 16.8066C174.48 16.5547 174.1 16.2178 173.824 15.7959C173.549 15.3682 173.411 14.8848 173.411 14.3457C173.411 13.8418 173.505 13.3965 173.692 13.0098C173.886 12.6172 174.167 12.2891 174.536 12.0254C174.911 11.7617 175.368 11.5625 175.907 11.4277C176.446 11.2871 177.062 11.2168 177.753 11.2168H179.414Z" fill="#A0A0A0"/>
<path d="M9.82114 0C4.44803 0 0.0922241 4.47714 0.0922241 10C0.0922241 15.5229 4.44803 20 9.82114 20C15.1942 20 19.5501 15.5228 19.5501 10C19.5501 4.47718 15.1943 0 9.82114 0ZM14.9252 4.75371C17.4927 7.39274 17.6713 11.4263 15.7364 14.2552L5.68125 3.92C8.43532 1.92984 12.3591 2.11617 14.9252 4.75371ZM4.71707 15.2463C2.14958 12.6073 1.971 8.57367 3.90592 5.7448L13.961 16.08C11.207 18.0702 7.28315 17.8839 4.71707 15.2463Z" fill="#A0A0A0"/>
</svg>
