<svg width="21" height="24" viewBox="0 0 21 24" fill="none" xmlns="http://www.w3.org/2000/svg">
<path d="M10.5181 12C13.5888 12 16.0774 9.31406 16.0774 6C16.0774 2.68594 13.5888 0 10.5181 0C7.44738 0 4.95869 2.68594 4.95869 6C4.95869 9.31406 7.44738 12 10.5181 12ZM14.4096 13.5H13.6843C12.7201 13.9781 11.6473 14.25 10.5181 14.25C9.38882 14.25 8.32038 13.9781 7.35183 13.5H6.6265C3.4038 13.5 0.789154 16.3219 0.789154 19.8V21.75C0.789154 22.9922 1.72296 24 2.87392 24H18.1622C19.3132 24 20.247 22.9922 20.247 21.75V19.8C20.247 16.3219 17.6323 13.5 14.4096 13.5Z" fill="#A0A0A0"/>
</svg>
