<svg width="31" height="24" viewBox="0 0 31 24" fill="none" xmlns="http://www.w3.org/2000/svg">
<path d="M12.9893 1.59965L14.503 0.385557C15.144 -0.128519 16.1804 -0.128519 16.8145 0.385557L30.0698 11.0116C30.7107 11.5257 30.7107 12.357 30.0698 12.8656L16.8145 23.4971C16.1736 24.0112 15.1372 24.0112 14.503 23.4971L12.9893 22.283C12.3416 21.7635 12.3552 20.9158 13.0166 20.4072L21.2329 14.1289H1.63645C0.729584 14.1289 0 13.5437 0 12.8164V11.0663C0 10.339 0.729584 9.75378 1.63645 9.75378H21.2329L13.0166 3.47548C12.3484 2.96688 12.3347 2.1192 12.9893 1.59965Z" fill="#F1C40F"/>
</svg>
