<svg width="29" height="32" viewBox="0 0 29 32" fill="none" xmlns="http://www.w3.org/2000/svg">
<path d="M9.89844 17.5564H7.47656C7.07695 17.5564 6.75 17.2296 6.75 16.8301V14.4091C6.75 14.0096 7.07695 13.6828 7.47656 13.6828H9.89844C10.298 13.6828 10.625 14.0096 10.625 14.4091V16.8301C10.625 17.2296 10.298 17.5564 9.89844 17.5564ZM16.4375 16.8301V14.4091C16.4375 14.0096 16.1105 13.6828 15.7109 13.6828H13.2891C12.8895 13.6828 12.5625 14.0096 12.5625 14.4091V16.8301C12.5625 17.2296 12.8895 17.5564 13.2891 17.5564H15.7109C16.1105 17.5564 16.4375 17.2296 16.4375 16.8301ZM22.25 16.8301V14.4091C22.25 14.0096 21.923 13.6828 21.5234 13.6828H19.1016C18.702 13.6828 18.375 14.0096 18.375 14.4091V16.8301C18.375 17.2296 18.702 17.5564 19.1016 17.5564H21.5234C21.923 17.5564 22.25 17.2296 22.25 16.8301ZM16.4375 22.6405V20.2195C16.4375 19.82 16.1105 19.4932 15.7109 19.4932H13.2891C12.8895 19.4932 12.5625 19.82 12.5625 20.2195V22.6405C12.5625 23.04 12.8895 23.3668 13.2891 23.3668H15.7109C16.1105 23.3668 16.4375 23.04 16.4375 22.6405ZM10.625 22.6405V20.2195C10.625 19.82 10.298 19.4932 9.89844 19.4932H7.47656C7.07695 19.4932 6.75 19.82 6.75 20.2195V22.6405C6.75 23.04 7.07695 23.3668 7.47656 23.3668H9.89844C10.298 23.3668 10.625 23.04 10.625 22.6405ZM22.25 22.6405V20.2195C22.25 19.82 21.923 19.4932 21.5234 19.4932H19.1016C18.702 19.4932 18.375 19.82 18.375 20.2195V22.6405C18.375 23.04 18.702 23.3668 19.1016 23.3668H21.5234C21.923 23.3668 22.25 23.04 22.25 22.6405ZM28.0625 6.90403V28.2088C28.0625 29.8127 26.7607 31.114 25.1562 31.114H3.84375C2.23926 31.114 0.9375 29.8127 0.9375 28.2088V6.90403C0.9375 5.30012 2.23926 3.99883 3.84375 3.99883H6.75V0.851542C6.75 0.452078 7.07695 0.125244 7.47656 0.125244H9.89844C10.298 0.125244 10.625 0.452078 10.625 0.851542V3.99883H18.375V0.851542C18.375 0.452078 18.702 0.125244 19.1016 0.125244H21.5234C21.923 0.125244 22.25 0.452078 22.25 0.851542V3.99883H25.1562C26.7607 3.99883 28.0625 5.30012 28.0625 6.90403ZM25.1562 27.8456V9.80922H3.84375V27.8456C3.84375 28.0454 4.00723 28.2088 4.20703 28.2088H24.793C24.9928 28.2088 25.1562 28.0454 25.1562 27.8456Z" fill="white"/>
</svg>
