<svg width="27" height="27" viewBox="0 0 27 27" fill="none" xmlns="http://www.w3.org/2000/svg">
<path d="M13.5497 1C6.83164 1 1.38855 6.59476 1.38855 13.5C1.38855 20.4052 6.83164 26 13.5497 26C20.2677 26 25.7108 20.4052 25.7108 13.5C25.7108 6.59476 20.2677 1 13.5497 1ZM13.5497 23.5806C8.13112 23.5806 3.74232 19.0696 3.74232 13.5C3.74232 7.93044 8.13112 3.41935 13.5497 3.41935C18.9683 3.41935 23.3571 7.93044 23.3571 13.5C23.3571 19.0696 18.9683 23.5806 13.5497 23.5806ZM16.5802 18.3185L12.4169 15.2087C12.2649 15.0927 12.1767 14.9113 12.1767 14.7198V6.44355C12.1767 6.11089 12.4415 5.83871 12.7651 5.83871H14.3343C14.6579 5.83871 14.9227 6.11089 14.9227 6.44355V13.5857L18.1984 16.0353C18.4632 16.2319 18.5171 16.6099 18.3259 16.8821L17.404 18.1875C17.2128 18.4546 16.845 18.5151 16.5802 18.3185Z" fill="#F1C40F" stroke="#F1C40F"/>
</svg>
