<svg width="129" height="20" viewBox="0 0 129 20" fill="none" xmlns="http://www.w3.org/2000/svg">
<path d="M38.4848 12.834H40.6821C40.6118 13.6719 40.3774 14.4189 39.979 15.0752C39.5805 15.7256 39.021 16.2383 38.3003 16.6133C37.5795 16.9883 36.7036 17.1758 35.6723 17.1758C34.8813 17.1758 34.1694 17.0352 33.5366 16.7539C32.9038 16.4668 32.3618 16.0625 31.9106 15.541C31.4594 15.0137 31.1137 14.3779 30.8735 13.6338C30.6391 12.8896 30.5219 12.0576 30.5219 11.1377V10.0742C30.5219 9.1543 30.642 8.32227 30.8823 7.57812C31.1284 6.83398 31.4799 6.19824 31.937 5.6709C32.394 5.1377 32.9419 4.73047 33.5805 4.44922C34.2251 4.16797 34.9487 4.02734 35.7514 4.02734C36.771 4.02734 37.6323 4.21484 38.3354 4.58984C39.0385 4.96484 39.5835 5.4834 39.9702 6.14551C40.3628 6.80762 40.603 7.56641 40.6909 8.42188H38.4936C38.435 7.87109 38.3061 7.39941 38.1069 7.00684C37.9135 6.61426 37.6264 6.31543 37.2456 6.11035C36.8647 5.89941 36.3667 5.79395 35.7514 5.79395C35.2475 5.79395 34.8081 5.8877 34.4331 6.0752C34.0581 6.2627 33.7446 6.53809 33.4926 6.90137C33.2407 7.26465 33.0503 7.71289 32.9213 8.24609C32.7983 8.77344 32.7368 9.37695 32.7368 10.0566V11.1377C32.7368 11.7822 32.7924 12.3682 32.9038 12.8955C33.021 13.417 33.1967 13.8652 33.4311 14.2402C33.6713 14.6152 33.976 14.9053 34.3452 15.1104C34.7143 15.3154 35.1567 15.418 35.6723 15.418C36.2993 15.418 36.8061 15.3184 37.1928 15.1191C37.5854 14.9199 37.8813 14.6299 38.0805 14.249C38.2856 13.8623 38.4204 13.3906 38.4848 12.834ZM42.0708 12.3506V12.1484C42.0708 11.4629 42.1704 10.8271 42.3696 10.2412C42.5688 9.64941 42.8559 9.13672 43.2309 8.70312C43.6118 8.26367 44.0747 7.92383 44.6196 7.68359C45.1704 7.4375 45.7915 7.31445 46.4829 7.31445C47.1801 7.31445 47.8012 7.4375 48.3461 7.68359C48.8969 7.92383 49.3628 8.26367 49.7436 8.70312C50.1245 9.13672 50.4145 9.64941 50.6137 10.2412C50.8129 10.8271 50.9126 11.4629 50.9126 12.1484V12.3506C50.9126 13.0361 50.8129 13.6719 50.6137 14.2578C50.4145 14.8438 50.1245 15.3564 49.7436 15.7959C49.3628 16.2295 48.8999 16.5693 48.3549 16.8154C47.81 17.0557 47.1919 17.1758 46.5004 17.1758C45.8032 17.1758 45.1792 17.0557 44.6284 16.8154C44.0835 16.5693 43.6206 16.2295 43.2397 15.7959C42.8588 15.3564 42.5688 14.8438 42.3696 14.2578C42.1704 13.6719 42.0708 13.0361 42.0708 12.3506ZM44.1889 12.1484V12.3506C44.1889 12.7783 44.2329 13.1826 44.3208 13.5635C44.4086 13.9443 44.5463 14.2783 44.7338 14.5654C44.9213 14.8525 45.1616 15.0781 45.4545 15.2422C45.7475 15.4062 46.0961 15.4883 46.5004 15.4883C46.893 15.4883 47.2329 15.4062 47.52 15.2422C47.8129 15.0781 48.0532 14.8525 48.2407 14.5654C48.4282 14.2783 48.5659 13.9443 48.6538 13.5635C48.7475 13.1826 48.7944 12.7783 48.7944 12.3506V12.1484C48.7944 11.7266 48.7475 11.3281 48.6538 10.9531C48.5659 10.5723 48.4253 10.2354 48.2319 9.94238C48.0444 9.64941 47.8042 9.4209 47.5112 9.25684C47.2241 9.08691 46.8813 9.00195 46.4829 9.00195C46.0844 9.00195 45.7387 9.08691 45.4458 9.25684C45.1586 9.4209 44.9213 9.64941 44.7338 9.94238C44.5463 10.2354 44.4086 10.5723 44.3208 10.9531C44.2329 11.3281 44.1889 11.7266 44.1889 12.1484ZM54.7885 9.52051V17H52.6704V7.49023H54.6655L54.7885 9.52051ZM54.4106 11.8936L53.7251 11.8848C53.7309 11.2109 53.8247 10.5928 54.0063 10.0303C54.1938 9.46777 54.4516 8.98438 54.7797 8.58008C55.1137 8.17578 55.5122 7.86523 55.9751 7.64844C56.4379 7.42578 56.9536 7.31445 57.5219 7.31445C57.979 7.31445 58.392 7.37891 58.7612 7.50781C59.1362 7.63086 59.4555 7.83301 59.7192 8.11426C59.9887 8.39551 60.1938 8.76172 60.3344 9.21289C60.4751 9.6582 60.5454 10.2061 60.5454 10.8564V17H58.4184V10.8477C58.4184 10.3906 58.351 10.0303 58.2163 9.7666C58.0874 9.49707 57.8969 9.30664 57.645 9.19531C57.3989 9.07812 57.0913 9.01953 56.7221 9.01953C56.3588 9.01953 56.0336 9.0957 55.7465 9.24805C55.4594 9.40039 55.2163 9.6084 55.017 9.87207C54.8237 10.1357 54.6743 10.4404 54.5688 10.7861C54.4633 11.1318 54.4106 11.501 54.4106 11.8936ZM65.4321 17H63.3051V6.875C63.3051 6.10742 63.4575 5.45996 63.7622 4.93262C64.0727 4.40527 64.5151 4.00391 65.0893 3.72852C65.6694 3.45313 66.3579 3.31543 67.1547 3.31543C67.6235 3.31543 68.0747 3.36523 68.5083 3.46484C68.9477 3.56445 69.4018 3.69043 69.8706 3.84277L69.5454 5.56543C69.2465 5.46582 68.9155 5.37207 68.5522 5.28418C68.1889 5.19043 67.77 5.14355 67.2954 5.14355C66.6567 5.14355 66.185 5.29004 65.8803 5.58301C65.5815 5.87012 65.4321 6.30078 65.4321 6.875V17ZM67.3393 7.49023V9.03711H61.8461V7.49023H67.3393ZM70.8725 7.49023V17H68.7544V7.49023H70.8725ZM75.3637 9.30078V17H73.2456V7.49023H75.267L75.3637 9.30078ZM78.2729 7.42871L78.2553 9.39746C78.1264 9.37402 77.9858 9.35645 77.8335 9.34473C77.687 9.33301 77.5405 9.32715 77.394 9.32715C77.0307 9.32715 76.7114 9.37988 76.436 9.48535C76.1606 9.58496 75.9292 9.73145 75.7417 9.9248C75.56 10.1123 75.4194 10.3408 75.3198 10.6104C75.2202 10.8799 75.1616 11.1816 75.144 11.5156L74.6606 11.5508C74.6606 10.9531 74.7192 10.3994 74.8364 9.88965C74.9536 9.37988 75.1294 8.93164 75.3637 8.54492C75.604 8.1582 75.9028 7.85645 76.2602 7.63965C76.6235 7.42285 77.0424 7.31445 77.517 7.31445C77.646 7.31445 77.7836 7.32617 77.9301 7.34961C78.0825 7.37305 78.1967 7.39941 78.2729 7.42871ZM81.7182 9.42383V17H79.6001V7.49023H81.5952L81.7182 9.42383ZM81.3754 11.8936L80.6547 11.8848C80.6547 11.2285 80.7368 10.6221 80.9008 10.0654C81.0649 9.50879 81.3051 9.02539 81.6215 8.61523C81.9379 8.19922 82.3305 7.87988 82.7993 7.65723C83.2739 7.42871 83.8217 7.31445 84.4428 7.31445C84.8764 7.31445 85.2719 7.37891 85.6294 7.50781C85.9926 7.63086 86.3061 7.82715 86.5698 8.09668C86.8393 8.36621 87.0444 8.71191 87.185 9.13379C87.3315 9.55566 87.4047 10.0654 87.4047 10.6631V17H85.2866V10.8477C85.2866 10.3848 85.2163 10.0215 85.0756 9.75781C84.9409 9.49414 84.7446 9.30664 84.4868 9.19531C84.2348 9.07812 83.9331 9.01953 83.5815 9.01953C83.1831 9.01953 82.8432 9.0957 82.562 9.24805C82.2866 9.40039 82.061 9.6084 81.8852 9.87207C81.7094 10.1357 81.5805 10.4404 81.4985 10.7861C81.4165 11.1318 81.3754 11.501 81.3754 11.8936ZM87.2729 11.3311L86.2797 11.5508C86.2797 10.9766 86.3588 10.4346 86.517 9.9248C86.6811 9.40918 86.9184 8.95801 87.229 8.57129C87.5454 8.17871 87.935 7.87109 88.3979 7.64844C88.8608 7.42578 89.3911 7.31445 89.9887 7.31445C90.4751 7.31445 90.9086 7.38184 91.2895 7.5166C91.6762 7.64551 92.0044 7.85059 92.2739 8.13184C92.5434 8.41309 92.7485 8.7793 92.8891 9.23047C93.0297 9.67578 93.1001 10.2148 93.1001 10.8477V17H90.9731V10.8389C90.9731 10.3584 90.9028 9.98633 90.7622 9.72266C90.6274 9.45898 90.434 9.27734 90.1821 9.17773C89.9301 9.07227 89.6284 9.01953 89.2768 9.01953C88.9487 9.01953 88.6586 9.08105 88.4067 9.2041C88.1606 9.32129 87.9526 9.48828 87.7827 9.70508C87.6128 9.91602 87.4838 10.1592 87.396 10.4346C87.3139 10.71 87.2729 11.0088 87.2729 11.3311ZM100.641 15.0928V10.5576C100.641 10.2178 100.58 9.9248 100.456 9.67871C100.333 9.43262 100.146 9.24219 99.894 9.10742C99.6479 8.97266 99.3374 8.90527 98.9624 8.90527C98.6167 8.90527 98.3178 8.96387 98.0659 9.08105C97.8139 9.19824 97.6176 9.35645 97.477 9.55566C97.3364 9.75488 97.2661 9.98047 97.2661 10.2324H95.1567C95.1567 9.85742 95.2475 9.49414 95.4292 9.14258C95.6108 8.79102 95.8745 8.47754 96.2202 8.20215C96.5659 7.92676 96.979 7.70996 97.4594 7.55176C97.9399 7.39355 98.479 7.31445 99.0766 7.31445C99.7915 7.31445 100.424 7.43457 100.975 7.6748C101.532 7.91504 101.968 8.27832 102.285 8.76465C102.607 9.24512 102.768 9.84863 102.768 10.5752V14.8027C102.768 15.2363 102.797 15.626 102.856 15.9717C102.92 16.3115 103.011 16.6074 103.128 16.8594V17H100.957C100.858 16.7715 100.779 16.4814 100.72 16.1299C100.667 15.7725 100.641 15.4268 100.641 15.0928ZM100.949 11.2168L100.966 12.5264H99.4458C99.0532 12.5264 98.7075 12.5645 98.4086 12.6406C98.1098 12.7109 97.8608 12.8164 97.6616 12.957C97.4624 13.0977 97.3129 13.2676 97.2133 13.4668C97.1137 13.666 97.0639 13.8916 97.0639 14.1436C97.0639 14.3955 97.1225 14.627 97.2397 14.8379C97.3569 15.043 97.5268 15.2041 97.7495 15.3213C97.978 15.4385 98.2534 15.4971 98.5756 15.4971C99.0092 15.4971 99.3872 15.4092 99.7094 15.2334C100.038 15.0518 100.295 14.832 100.483 14.5742C100.67 14.3105 100.77 14.0615 100.782 13.8271L101.467 14.7676C101.397 15.0078 101.277 15.2656 101.107 15.541C100.937 15.8164 100.714 16.0801 100.439 16.332C100.169 16.5781 99.8442 16.7803 99.4633 16.9385C99.0883 17.0967 98.6547 17.1758 98.1626 17.1758C97.5415 17.1758 96.9877 17.0527 96.5014 16.8066C96.0151 16.5547 95.6342 16.2178 95.3588 15.7959C95.0835 15.3682 94.9458 14.8848 94.9458 14.3457C94.9458 13.8418 95.0395 13.3965 95.227 13.0098C95.4204 12.6172 95.7016 12.2891 96.0708 12.0254C96.4458 11.7617 96.9028 11.5625 97.4418 11.4277C97.9809 11.2871 98.5961 11.2168 99.2876 11.2168H100.949ZM110.784 15.0312V3.5H112.911V17H110.986L110.784 15.0312ZM104.596 12.3506V12.166C104.596 11.4453 104.681 10.7891 104.851 10.1973C105.021 9.59961 105.267 9.08691 105.589 8.65918C105.912 8.22559 106.304 7.89453 106.767 7.66602C107.23 7.43164 107.751 7.31445 108.331 7.31445C108.906 7.31445 109.41 7.42578 109.843 7.64844C110.277 7.87109 110.646 8.19043 110.951 8.60645C111.255 9.0166 111.498 9.50879 111.68 10.083C111.862 10.6514 111.991 11.2842 112.067 11.9814V12.5703C111.991 13.25 111.862 13.8711 111.68 14.4336C111.498 14.9961 111.255 15.4824 110.951 15.8926C110.646 16.3027 110.274 16.6191 109.834 16.8418C109.401 17.0645 108.894 17.1758 108.314 17.1758C107.74 17.1758 107.221 17.0557 106.758 16.8154C106.301 16.5752 105.912 16.2383 105.589 15.8047C105.267 15.3711 105.021 14.8613 104.851 14.2754C104.681 13.6836 104.596 13.042 104.596 12.3506ZM106.714 12.166V12.3506C106.714 12.7842 106.752 13.1885 106.829 13.5635C106.911 13.9385 107.037 14.2695 107.206 14.5566C107.376 14.8379 107.596 15.0605 107.866 15.2246C108.141 15.3828 108.469 15.4619 108.85 15.4619C109.331 15.4619 109.726 15.3564 110.037 15.1455C110.347 14.9346 110.59 14.6504 110.766 14.293C110.948 13.9297 111.071 13.5254 111.135 13.0801V11.4893C111.1 11.1436 111.027 10.8213 110.915 10.5225C110.81 10.2236 110.666 9.96289 110.485 9.74023C110.303 9.51172 110.078 9.33594 109.808 9.21289C109.544 9.08398 109.231 9.01953 108.868 9.01953C108.481 9.01953 108.153 9.10156 107.883 9.26562C107.614 9.42969 107.391 9.65527 107.215 9.94238C107.045 10.2295 106.919 10.5635 106.837 10.9443C106.755 11.3252 106.714 11.7324 106.714 12.166ZM114.721 12.3506V12.1484C114.721 11.4629 114.821 10.8271 115.02 10.2412C115.219 9.64941 115.506 9.13672 115.881 8.70312C116.262 8.26367 116.725 7.92383 117.27 7.68359C117.821 7.4375 118.442 7.31445 119.133 7.31445C119.831 7.31445 120.452 7.4375 120.997 7.68359C121.547 7.92383 122.013 8.26367 122.394 8.70312C122.775 9.13672 123.065 9.64941 123.264 10.2412C123.463 10.8271 123.563 11.4629 123.563 12.1484V12.3506C123.563 13.0361 123.463 13.6719 123.264 14.2578C123.065 14.8438 122.775 15.3564 122.394 15.7959C122.013 16.2295 121.55 16.5693 121.005 16.8154C120.46 17.0557 119.842 17.1758 119.151 17.1758C118.454 17.1758 117.83 17.0557 117.279 16.8154C116.734 16.5693 116.271 16.2295 115.89 15.7959C115.509 15.3564 115.219 14.8438 115.02 14.2578C114.821 13.6719 114.721 13.0361 114.721 12.3506ZM116.839 12.1484V12.3506C116.839 12.7783 116.883 13.1826 116.971 13.5635C117.059 13.9443 117.197 14.2783 117.384 14.5654C117.572 14.8525 117.812 15.0781 118.105 15.2422C118.398 15.4062 118.747 15.4883 119.151 15.4883C119.543 15.4883 119.883 15.4062 120.17 15.2422C120.463 15.0781 120.704 14.8525 120.891 14.5654C121.079 14.2783 121.216 13.9443 121.304 13.5635C121.398 13.1826 121.445 12.7783 121.445 12.3506V12.1484C121.445 11.7266 121.398 11.3281 121.304 10.9531C121.216 10.5723 121.076 10.2354 120.882 9.94238C120.695 9.64941 120.455 9.4209 120.162 9.25684C119.874 9.08691 119.532 9.00195 119.133 9.00195C118.735 9.00195 118.389 9.08691 118.096 9.25684C117.809 9.4209 117.572 9.64941 117.384 9.94238C117.197 10.2354 117.059 10.5723 116.971 10.9531C116.883 11.3281 116.839 11.7266 116.839 12.1484Z" fill="#16A085"/>
<path d="M10.009 0C4.65202 0 0.309326 4.47714 0.309326 10C0.309326 15.5229 4.65202 20 10.009 20C15.366 20 19.7087 15.5229 19.7087 10C19.7087 4.47714 15.366 0 10.009 0ZM10.009 1.93548C14.3321 1.93548 17.8314 5.54238 17.8314 10C17.8314 14.4569 14.3328 18.0645 10.009 18.0645C5.68593 18.0645 2.18669 14.4576 2.18669 10C2.18669 5.54306 5.68527 1.93548 10.009 1.93548ZM15.4926 7.18819L14.6112 6.27214C14.4287 6.08242 14.1315 6.08117 13.9475 6.26939L8.41898 11.9233L6.08041 9.49274C5.89788 9.30302 5.60071 9.30177 5.41669 9.48996L4.52811 10.3987C4.34409 10.5869 4.34288 10.8932 4.52545 11.083L8.07605 14.7731C8.25858 14.9629 8.55575 14.9641 8.73977 14.7759L15.49 7.8725C15.674 7.68427 15.6752 7.3779 15.4926 7.18819Z" fill="#16A085"/>
</svg>
