<svg width="152" height="20" viewBox="0 0 152 20" fill="none" xmlns="http://www.w3.org/2000/svg">
<path d="M10.6899 0C5.03442 0 0.450012 4.47702 0.450012 10C0.450012 15.523 5.03442 20 10.6899 20C16.3453 20 20.9297 15.523 20.9297 10C20.9297 4.47702 16.3453 0 10.6899 0ZM10.6899 17.4194C6.49112 17.4194 3.09256 14.1012 3.09256 10C3.09256 5.8996 6.49029 2.58065 10.6899 2.58065C14.8886 2.58065 18.2872 5.89879 18.2872 10C18.2872 14.1004 14.8895 17.4194 10.6899 17.4194ZM10.6899 4.83871C7.7711 4.83871 5.40478 7.1496 5.40478 10C5.40478 12.8504 7.7711 15.1613 10.6899 15.1613C13.6086 15.1613 15.975 12.8504 15.975 10C15.975 7.1496 13.6086 4.83871 10.6899 4.83871ZM10.6899 12.5806C9.23276 12.5806 8.04733 11.423 8.04733 10C8.04733 8.57702 9.23276 7.41935 10.6899 7.41935C12.147 7.41935 13.3324 8.57702 13.3324 10C13.3324 11.423 12.147 12.5806 10.6899 12.5806Z" fill="#A0A0A0"/>
<path d="M38.5866 15.251V17H31.7927V15.251H38.5866ZM32.4167 4.20312V17H30.2107V4.20312H32.4167ZM37.6989 9.54688V11.2695H31.7927V9.54688H37.6989ZM38.5427 4.20312V5.96094H31.7927V4.20312H38.5427ZM42.2956 9.42383V17H40.1775V7.49023H42.1726L42.2956 9.42383ZM41.9529 11.8936L41.2322 11.8848C41.2322 11.2285 41.3142 10.6221 41.4782 10.0654C41.6423 9.50879 41.8825 9.02539 42.1989 8.61523C42.5154 8.19922 42.9079 7.87988 43.3767 7.65723C43.8513 7.42871 44.3991 7.31445 45.0202 7.31445C45.4538 7.31445 45.8493 7.37891 46.2068 7.50781C46.57 7.63086 46.8835 7.82715 47.1472 8.09668C47.4167 8.36621 47.6218 8.71191 47.7624 9.13379C47.9089 9.55566 47.9822 10.0654 47.9822 10.6631V17H45.864V10.8477C45.864 10.3848 45.7937 10.0215 45.653 9.75781C45.5183 9.49414 45.322 9.30664 45.0642 9.19531C44.8122 9.07812 44.5105 9.01953 44.1589 9.01953C43.7605 9.01953 43.4206 9.0957 43.1394 9.24805C42.864 9.40039 42.6384 9.6084 42.4626 9.87207C42.2868 10.1357 42.1579 10.4404 42.0759 10.7861C41.9939 11.1318 41.9529 11.501 41.9529 11.8936ZM47.8503 11.3311L46.8572 11.5508C46.8572 10.9766 46.9363 10.4346 47.0945 9.9248C47.2585 9.40918 47.4958 8.95801 47.8064 8.57129C48.1228 8.17871 48.5124 7.87109 48.9753 7.64844C49.4382 7.42578 49.9685 7.31445 50.5661 7.31445C51.0525 7.31445 51.4861 7.38184 51.8669 7.5166C52.2536 7.64551 52.5818 7.85059 52.8513 8.13184C53.1208 8.41309 53.3259 8.7793 53.4665 9.23047C53.6072 9.67578 53.6775 10.2148 53.6775 10.8477V17H51.5505V10.8389C51.5505 10.3584 51.4802 9.98633 51.3396 9.72266C51.2048 9.45898 51.0114 9.27734 50.7595 9.17773C50.5075 9.07227 50.2058 9.01953 49.8542 9.01953C49.5261 9.01953 49.2361 9.08105 48.9841 9.2041C48.738 9.32129 48.53 9.48828 48.3601 9.70508C48.1902 9.91602 48.0613 10.1592 47.9734 10.4346C47.8913 10.71 47.8503 11.0088 47.8503 11.3311ZM65.7009 15.0928V10.5576C65.7009 10.2178 65.6394 9.9248 65.5163 9.67871C65.3933 9.43262 65.2058 9.24219 64.9538 9.10742C64.7077 8.97266 64.3972 8.90527 64.0222 8.90527C63.6765 8.90527 63.3777 8.96387 63.1257 9.08105C62.8738 9.19824 62.6775 9.35645 62.5368 9.55566C62.3962 9.75488 62.3259 9.98047 62.3259 10.2324H60.2165C60.2165 9.85742 60.3073 9.49414 60.489 9.14258C60.6706 8.79102 60.9343 8.47754 61.28 8.20215C61.6257 7.92676 62.0388 7.70996 62.5193 7.55176C62.9997 7.39355 63.5388 7.31445 64.1364 7.31445C64.8513 7.31445 65.4841 7.43457 66.0349 7.6748C66.5915 7.91504 67.028 8.27832 67.3445 8.76465C67.6667 9.24512 67.8279 9.84863 67.8279 10.5752V14.8027C67.8279 15.2363 67.8572 15.626 67.9157 15.9717C67.9802 16.3115 68.071 16.6074 68.1882 16.8594V17H66.0173C65.9177 16.7715 65.8386 16.4814 65.78 16.1299C65.7273 15.7725 65.7009 15.4268 65.7009 15.0928ZM66.0085 11.2168L66.0261 12.5264H64.5056C64.113 12.5264 63.7673 12.5645 63.4685 12.6406C63.1697 12.7109 62.9206 12.8164 62.7214 12.957C62.5222 13.0977 62.3728 13.2676 62.2732 13.4668C62.1736 13.666 62.1238 13.8916 62.1238 14.1436C62.1238 14.3955 62.1823 14.627 62.2995 14.8379C62.4167 15.043 62.5866 15.2041 62.8093 15.3213C63.0378 15.4385 63.3132 15.4971 63.6355 15.4971C64.0691 15.4971 64.447 15.4092 64.7693 15.2334C65.0974 15.0518 65.3552 14.832 65.5427 14.5742C65.7302 14.3105 65.8298 14.0615 65.8415 13.8271L66.5271 14.7676C66.4568 15.0078 66.3366 15.2656 66.1667 15.541C65.9968 15.8164 65.7741 16.0801 65.4988 16.332C65.2292 16.5781 64.904 16.7803 64.5232 16.9385C64.1482 17.0967 63.7146 17.1758 63.2224 17.1758C62.6013 17.1758 62.0476 17.0527 61.5613 16.8066C61.0749 16.5547 60.6941 16.2178 60.4187 15.7959C60.1433 15.3682 60.0056 14.8848 60.0056 14.3457C60.0056 13.8418 60.0993 13.3965 60.2868 13.0098C60.4802 12.6172 60.7614 12.2891 61.1306 12.0254C61.5056 11.7617 61.9626 11.5625 62.5017 11.4277C63.0407 11.2871 63.656 11.2168 64.3474 11.2168H66.0085ZM72.1433 9.52051V17H70.0251V7.49023H72.0202L72.1433 9.52051ZM71.7654 11.8936L71.0798 11.8848C71.0857 11.2109 71.1794 10.5928 71.3611 10.0303C71.5486 9.46777 71.8064 8.98438 72.1345 8.58008C72.4685 8.17578 72.8669 7.86523 73.3298 7.64844C73.7927 7.42578 74.3083 7.31445 74.8767 7.31445C75.3337 7.31445 75.7468 7.37891 76.1159 7.50781C76.4909 7.63086 76.8103 7.83301 77.0739 8.11426C77.3435 8.39551 77.5486 8.76172 77.6892 9.21289C77.8298 9.6582 77.9001 10.2061 77.9001 10.8564V17H75.7732V10.8477C75.7732 10.3906 75.7058 10.0303 75.571 9.7666C75.4421 9.49707 75.2517 9.30664 74.9997 9.19531C74.7536 9.07812 74.446 9.01953 74.0769 9.01953C73.7136 9.01953 73.3884 9.0957 73.1013 9.24805C72.8142 9.40039 72.571 9.6084 72.3718 9.87207C72.1784 10.1357 72.029 10.4404 71.9236 10.7861C71.8181 11.1318 71.7654 11.501 71.7654 11.8936ZM85.863 15.0312V3.5H87.99V17H86.0652L85.863 15.0312ZM79.6755 12.3506V12.166C79.6755 11.4453 79.7605 10.7891 79.9304 10.1973C80.1003 9.59961 80.3464 9.08691 80.6687 8.65918C80.9909 8.22559 81.3835 7.89453 81.8464 7.66602C82.3093 7.43164 82.8308 7.31445 83.4109 7.31445C83.9851 7.31445 84.489 7.42578 84.9226 7.64844C85.3562 7.87109 85.7253 8.19043 86.03 8.60645C86.3347 9.0166 86.5779 9.50879 86.7595 10.083C86.9411 10.6514 87.07 11.2842 87.1462 11.9814V12.5703C87.07 13.25 86.9411 13.8711 86.7595 14.4336C86.5779 14.9961 86.3347 15.4824 86.03 15.8926C85.7253 16.3027 85.3532 16.6191 84.9138 16.8418C84.4802 17.0645 83.9734 17.1758 83.3933 17.1758C82.8191 17.1758 82.3005 17.0557 81.8376 16.8154C81.3806 16.5752 80.9909 16.2383 80.6687 15.8047C80.3464 15.3711 80.1003 14.8613 79.9304 14.2754C79.7605 13.6836 79.6755 13.042 79.6755 12.3506ZM81.7937 12.166V12.3506C81.7937 12.7842 81.8318 13.1885 81.9079 13.5635C81.99 13.9385 82.1159 14.2695 82.2859 14.5566C82.4558 14.8379 82.6755 15.0605 82.945 15.2246C83.2204 15.3828 83.5486 15.4619 83.9294 15.4619C84.4099 15.4619 84.8054 15.3564 85.1159 15.1455C85.4265 14.9346 85.6697 14.6504 85.8454 14.293C86.0271 13.9297 86.1501 13.5254 86.2146 13.0801V11.4893C86.1794 11.1436 86.1062 10.8213 85.9948 10.5225C85.8894 10.2236 85.7458 9.96289 85.5642 9.74023C85.3825 9.51172 85.157 9.33594 84.8874 9.21289C84.6238 9.08398 84.3103 9.01953 83.947 9.01953C83.5603 9.01953 83.2322 9.10156 82.9626 9.26562C82.6931 9.42969 82.4704 9.65527 82.2947 9.94238C82.1247 10.2295 81.9988 10.5635 81.9167 10.9443C81.8347 11.3252 81.7937 11.7324 81.7937 12.166ZM95.5661 15.0928V10.5576C95.5661 10.2178 95.5046 9.9248 95.3816 9.67871C95.2585 9.43262 95.071 9.24219 94.8191 9.10742C94.573 8.97266 94.2624 8.90527 93.8874 8.90527C93.5417 8.90527 93.2429 8.96387 92.9909 9.08105C92.739 9.19824 92.5427 9.35645 92.4021 9.55566C92.2614 9.75488 92.1911 9.98047 92.1911 10.2324H90.0818C90.0818 9.85742 90.1726 9.49414 90.3542 9.14258C90.5359 8.79102 90.7995 8.47754 91.1452 8.20215C91.4909 7.92676 91.904 7.70996 92.3845 7.55176C92.865 7.39355 93.404 7.31445 94.0017 7.31445C94.7165 7.31445 95.3493 7.43457 95.9001 7.6748C96.4568 7.91504 96.8933 8.27832 97.2097 8.76465C97.532 9.24512 97.6931 9.84863 97.6931 10.5752V14.8027C97.6931 15.2363 97.7224 15.626 97.781 15.9717C97.8454 16.3115 97.9363 16.6074 98.0534 16.8594V17H95.8825C95.7829 16.7715 95.7038 16.4814 95.6452 16.1299C95.5925 15.7725 95.5661 15.4268 95.5661 15.0928ZM95.8738 11.2168L95.8913 12.5264H94.3708C93.9782 12.5264 93.6325 12.5645 93.3337 12.6406C93.0349 12.7109 92.7859 12.8164 92.5866 12.957C92.3874 13.0977 92.238 13.2676 92.1384 13.4668C92.0388 13.666 91.989 13.8916 91.989 14.1436C91.989 14.3955 92.0476 14.627 92.1648 14.8379C92.282 15.043 92.4519 15.2041 92.6745 15.3213C92.903 15.4385 93.1784 15.4971 93.5007 15.4971C93.9343 15.4971 94.3122 15.4092 94.6345 15.2334C94.9626 15.0518 95.2204 14.832 95.4079 14.5742C95.5954 14.3105 95.695 14.0615 95.7068 13.8271L96.3923 14.7676C96.322 15.0078 96.2019 15.2656 96.032 15.541C95.862 15.8164 95.6394 16.0801 95.364 16.332C95.0945 16.5781 94.7693 16.7803 94.3884 16.9385C94.0134 17.0967 93.5798 17.1758 93.0876 17.1758C92.4665 17.1758 91.9128 17.0527 91.4265 16.8066C90.9402 16.5547 90.5593 16.2178 90.2839 15.7959C90.0085 15.3682 89.8708 14.8848 89.8708 14.3457C89.8708 13.8418 89.9646 13.3965 90.1521 13.0098C90.3454 12.6172 90.6267 12.2891 90.9958 12.0254C91.3708 11.7617 91.8279 11.5625 92.3669 11.4277C92.906 11.2871 93.5212 11.2168 94.2126 11.2168H95.8738ZM102.026 9.42383V17H99.9079V7.49023H101.903L102.026 9.42383ZM101.683 11.8936L100.963 11.8848C100.963 11.2285 101.045 10.6221 101.209 10.0654C101.373 9.50879 101.613 9.02539 101.929 8.61523C102.246 8.19922 102.638 7.87988 103.107 7.65723C103.582 7.42871 104.13 7.31445 104.751 7.31445C105.184 7.31445 105.58 7.37891 105.937 7.50781C106.301 7.63086 106.614 7.82715 106.878 8.09668C107.147 8.36621 107.352 8.71191 107.493 9.13379C107.639 9.55566 107.713 10.0654 107.713 10.6631V17H105.594V10.8477C105.594 10.3848 105.524 10.0215 105.384 9.75781C105.249 9.49414 105.052 9.30664 104.795 9.19531C104.543 9.07812 104.241 9.01953 103.889 9.01953C103.491 9.01953 103.151 9.0957 102.87 9.24805C102.594 9.40039 102.369 9.6084 102.193 9.87207C102.017 10.1357 101.888 10.4404 101.806 10.7861C101.724 11.1318 101.683 11.501 101.683 11.8936ZM107.581 11.3311L106.588 11.5508C106.588 10.9766 106.667 10.4346 106.825 9.9248C106.989 9.40918 107.226 8.95801 107.537 8.57129C107.853 8.17871 108.243 7.87109 108.706 7.64844C109.169 7.42578 109.699 7.31445 110.297 7.31445C110.783 7.31445 111.217 7.38184 111.597 7.5166C111.984 7.64551 112.312 7.85059 112.582 8.13184C112.851 8.41309 113.056 8.7793 113.197 9.23047C113.338 9.67578 113.408 10.2148 113.408 10.8477V17H111.281V10.8389C111.281 10.3584 111.211 9.98633 111.07 9.72266C110.935 9.45898 110.742 9.27734 110.49 9.17773C110.238 9.07227 109.936 9.01953 109.585 9.01953C109.257 9.01953 108.967 9.08105 108.715 9.2041C108.468 9.32129 108.26 9.48828 108.091 9.70508C107.921 9.91602 107.792 10.1592 107.704 10.4346C107.622 10.71 107.581 11.0088 107.581 11.3311ZM119.78 17.1758C119.077 17.1758 118.441 17.0615 117.873 16.833C117.31 16.5986 116.83 16.2734 116.431 15.8574C116.039 15.4414 115.737 14.9521 115.526 14.3896C115.315 13.8271 115.21 13.2207 115.21 12.5703V12.2188C115.21 11.4746 115.318 10.8008 115.535 10.1973C115.752 9.59375 116.053 9.07812 116.44 8.65039C116.827 8.2168 117.284 7.88574 117.811 7.65723C118.339 7.42871 118.91 7.31445 119.525 7.31445C120.205 7.31445 120.8 7.42871 121.309 7.65723C121.819 7.88574 122.241 8.20801 122.575 8.62402C122.915 9.03418 123.167 9.52344 123.331 10.0918C123.501 10.6602 123.586 11.2871 123.586 11.9727V12.8779H116.238V11.3574H121.494V11.1904C121.482 10.8096 121.406 10.4521 121.265 10.1182C121.131 9.78418 120.923 9.51465 120.641 9.30957C120.36 9.10449 119.985 9.00195 119.516 9.00195C119.165 9.00195 118.851 9.07812 118.576 9.23047C118.306 9.37695 118.081 9.59082 117.899 9.87207C117.717 10.1533 117.577 10.4932 117.477 10.8916C117.384 11.2842 117.337 11.7266 117.337 12.2188V12.5703C117.337 12.9863 117.392 13.373 117.504 13.7305C117.621 14.082 117.791 14.3896 118.013 14.6533C118.236 14.917 118.506 15.125 118.822 15.2773C119.138 15.4238 119.499 15.4971 119.903 15.4971C120.413 15.4971 120.867 15.3945 121.265 15.1895C121.664 14.9844 122.009 14.6943 122.302 14.3193L123.419 15.4004C123.214 15.6992 122.947 15.9863 122.619 16.2617C122.291 16.5312 121.889 16.751 121.415 16.9209C120.946 17.0908 120.401 17.1758 119.78 17.1758ZM127.339 9.52051V17H125.22V7.49023H127.216L127.339 9.52051ZM126.961 11.8936L126.275 11.8848C126.281 11.2109 126.375 10.5928 126.556 10.0303C126.744 9.46777 127.002 8.98438 127.33 8.58008C127.664 8.17578 128.062 7.86523 128.525 7.64844C128.988 7.42578 129.504 7.31445 130.072 7.31445C130.529 7.31445 130.942 7.37891 131.311 7.50781C131.686 7.63086 132.006 7.83301 132.269 8.11426C132.539 8.39551 132.744 8.76172 132.884 9.21289C133.025 9.6582 133.095 10.2061 133.095 10.8564V17H130.968V10.8477C130.968 10.3906 130.901 10.0303 130.766 9.7666C130.637 9.49707 130.447 9.30664 130.195 9.19531C129.949 9.07812 129.641 9.01953 129.272 9.01953C128.909 9.01953 128.584 9.0957 128.297 9.24805C128.009 9.40039 127.766 9.6084 127.567 9.87207C127.374 10.1357 127.224 10.4404 127.119 10.7861C127.013 11.1318 126.961 11.501 126.961 11.8936ZM139.617 7.49023V9.03711H134.256V7.49023H139.617ZM135.802 5.16113H137.921V14.3721C137.921 14.665 137.962 14.8906 138.044 15.0488C138.132 15.2012 138.252 15.3037 138.404 15.3564C138.556 15.4092 138.735 15.4355 138.94 15.4355C139.087 15.4355 139.227 15.4268 139.362 15.4092C139.497 15.3916 139.605 15.374 139.687 15.3564L139.696 16.9736C139.52 17.0264 139.315 17.0732 139.081 17.1143C138.852 17.1553 138.589 17.1758 138.29 17.1758C137.803 17.1758 137.373 17.0908 136.998 16.9209C136.623 16.7451 136.33 16.4609 136.119 16.0684C135.908 15.6758 135.802 15.1543 135.802 14.5039V5.16113ZM140.636 12.3506V12.1484C140.636 11.4629 140.736 10.8271 140.935 10.2412C141.134 9.64941 141.422 9.13672 141.797 8.70312C142.177 8.26367 142.64 7.92383 143.185 7.68359C143.736 7.4375 144.357 7.31445 145.049 7.31445C145.746 7.31445 146.367 7.4375 146.912 7.68359C147.463 7.92383 147.928 8.26367 148.309 8.70312C148.69 9.13672 148.98 9.64941 149.179 10.2412C149.379 10.8271 149.478 11.4629 149.478 12.1484V12.3506C149.478 13.0361 149.379 13.6719 149.179 14.2578C148.98 14.8438 148.69 15.3564 148.309 15.7959C147.928 16.2295 147.466 16.5693 146.921 16.8154C146.376 17.0557 145.758 17.1758 145.066 17.1758C144.369 17.1758 143.745 17.0557 143.194 16.8154C142.649 16.5693 142.186 16.2295 141.805 15.7959C141.425 15.3564 141.134 14.8438 140.935 14.2578C140.736 13.6719 140.636 13.0361 140.636 12.3506ZM142.755 12.1484V12.3506C142.755 12.7783 142.799 13.1826 142.886 13.5635C142.974 13.9443 143.112 14.2783 143.3 14.5654C143.487 14.8525 143.727 15.0781 144.02 15.2422C144.313 15.4062 144.662 15.4883 145.066 15.4883C145.459 15.4883 145.799 15.4062 146.086 15.2422C146.379 15.0781 146.619 14.8525 146.806 14.5654C146.994 14.2783 147.132 13.9443 147.219 13.5635C147.313 13.1826 147.36 12.7783 147.36 12.3506V12.1484C147.36 11.7266 147.313 11.3281 147.219 10.9531C147.132 10.5723 146.991 10.2354 146.798 9.94238C146.61 9.64941 146.37 9.4209 146.077 9.25684C145.79 9.08691 145.447 9.00195 145.049 9.00195C144.65 9.00195 144.304 9.08691 144.011 9.25684C143.724 9.4209 143.487 9.64941 143.3 9.94238C143.112 10.2354 142.974 10.5723 142.886 10.9531C142.799 11.3281 142.755 11.7266 142.755 12.1484Z" fill="#A0A0A0"/>
</svg>
