<svg width="20" height="25" viewBox="0 0 20 25" fill="none" xmlns="http://www.w3.org/2000/svg">
<path d="M19.0909 9.42948H18.1818C17.6795 9.42948 17.2727 9.76555 17.2727 10.1805V12.4335C17.2727 15.9444 13.6085 18.7616 9.2733 18.4124C5.49489 18.1078 2.72727 15.3018 2.72727 12.1659V10.1805C2.72727 9.76555 2.32045 9.42948 1.81818 9.42948H0.909091C0.406818 9.42948 0 9.76555 0 10.1805V12.0655C0 16.273 3.63466 20.0237 8.63636 20.5936V22.1965H5.45455C4.95227 22.1965 4.54545 22.5326 4.54545 22.9475V23.6985C4.54545 24.1134 4.95227 24.4495 5.45455 24.4495H14.5455C15.0477 24.4495 15.4545 24.1134 15.4545 23.6985V22.9475C15.4545 22.5326 15.0477 22.1965 14.5455 22.1965H11.3636V20.6114C16.2335 20.0594 20 16.6062 20 12.4335V10.1805C20 9.76555 19.5932 9.42948 19.0909 9.42948ZM10 16.9395C13.0125 16.9395 15.4545 14.9221 15.4545 12.4335H10.6062C10.2716 12.4335 10 12.2654 10 12.058V11.307C10 11.0995 10.2716 10.9315 10.6062 10.9315H15.4545V9.42948H10.6062C10.2716 9.42948 10 9.26145 10 9.05398V8.30298C10 8.09552 10.2716 7.92748 10.6062 7.92748H15.4545V6.42548H10.6062C10.2716 6.42548 10 6.25744 10 6.04998V5.29898C10 5.09152 10.2716 4.92348 10.6062 4.92348H15.4545C15.4545 2.43485 13.0125 0.41748 10 0.41748C6.9875 0.41748 4.54545 2.43485 4.54545 4.92348V12.4335C4.54545 14.9221 6.9875 16.9395 10 16.9395Z" fill="#A0A0A0"/>
</svg>
