<svg width="29" height="32" viewBox="0 0 29 32" fill="none" xmlns="http://www.w3.org/2000/svg">
<path d="M19.925 18.5248C18.1873 18.5248 17.3518 19.4932 14.5 19.4932C11.6482 19.4932 10.8187 18.5248 9.075 18.5248C4.58242 18.5248 0.9375 22.1684 0.9375 26.6593V28.2088C0.9375 29.8127 2.23926 31.114 3.84375 31.114H25.1562C26.7607 31.114 28.0625 29.8127 28.0625 28.2088V26.6593C28.0625 22.1684 24.4176 18.5248 19.925 18.5248ZM25.1562 28.2088H3.84375V26.6593C3.84375 23.7784 6.19297 21.43 9.075 21.43C9.95898 21.43 11.3939 22.3984 14.5 22.3984C17.6303 22.3984 19.035 21.43 19.925 21.43C22.807 21.43 25.1562 23.7784 25.1562 26.6593V28.2088ZM14.5 17.5564C19.3135 17.5564 23.2188 13.6525 23.2188 8.84082C23.2188 4.0291 19.3135 0.125244 14.5 0.125244C9.68652 0.125244 5.78125 4.0291 5.78125 8.84082C5.78125 13.6525 9.68652 17.5564 14.5 17.5564ZM14.5 3.03044C17.7029 3.03044 20.3125 5.63906 20.3125 8.84082C20.3125 12.0426 17.7029 14.6512 14.5 14.6512C11.2971 14.6512 8.6875 12.0426 8.6875 8.84082C8.6875 5.63906 11.2971 3.03044 14.5 3.03044Z" fill="white"/>
</svg>
