<svg width="31" height="31" viewBox="0 0 31 31" fill="none" xmlns="http://www.w3.org/2000/svg">
<path d="M30.4345 2.36176L28.6404 0.567667C28.4604 0.387697 28.2468 0.244935 28.0117 0.147533C27.7766 0.0501322 27.5246 0 27.2701 0C27.0156 0 26.7636 0.0501322 26.5285 0.147533C26.2934 0.244935 26.0798 0.387697 25.8999 0.567667L23.0976 3.37295C22.8627 3.60721 22.6858 3.89315 22.5811 4.20793L21.8448 6.41862L17.2273 11.0362C16.491 10.5057 15.6832 10.0831 14.7992 9.87723C12.7738 9.40615 10.7423 9.82395 9.35696 11.2093C8.79181 11.7768 8.37147 12.4719 8.13143 13.2359C7.76813 14.3598 6.72606 15.2153 5.57924 15.3225C4.1442 15.4599 2.81028 16.0158 1.7882 17.0445C-0.975309 19.8002 -0.478192 24.7653 2.88113 28.1228C6.24045 31.4803 11.2019 31.9707 13.9606 29.2169C14.9899 28.1948 15.5446 26.8615 15.6832 25.4198C15.7898 24.2785 16.6454 23.2321 17.768 22.8682C18.5322 22.6278 19.2274 22.2073 19.7952 21.6421C21.18 20.2567 21.596 18.2295 21.1273 16.2077C20.922 15.3213 20.4994 14.5123 19.9672 13.7736L24.5835 9.15729L26.7924 8.42101C27.1071 8.31629 27.3931 8.13942 27.6273 7.90451L30.4326 5.09984C30.7956 4.73679 30.9997 4.24454 31 3.73118C31.0003 3.21781 30.7969 2.72529 30.4345 2.36176ZM12.5946 21.3139C12.0197 21.3139 11.4578 21.1435 10.9799 20.8241C10.5019 20.5047 10.1294 20.0508 9.90941 19.5198C9.68943 18.9887 9.63187 18.4043 9.74401 17.8405C9.85616 17.2767 10.133 16.7589 10.5394 16.3524C10.9459 15.9459 11.4638 15.6691 12.0276 15.557C12.5914 15.4448 13.1757 15.5024 13.7068 15.7224C14.2379 15.9423 14.6918 16.3149 15.0112 16.7928C15.3305 17.2708 15.501 17.8327 15.501 18.4075C15.501 19.1783 15.1948 19.9176 14.6497 20.4627C14.1047 21.0077 13.3654 21.3139 12.5946 21.3139Z" fill="white"/>
</svg>
