<svg width="29" height="32" viewBox="0 0 29 32" fill="none" xmlns="http://www.w3.org/2000/svg">
<path d="M19.6177 16L27.2936 7.47131C28.2355 6.42472 28.2355 4.72784 27.2936 3.6804L25.5876 1.78494C24.6457 0.738352 23.1185 0.738352 22.1758 1.78494L14.5 10.3136L6.82418 1.78494C5.88224 0.738352 4.35506 0.738352 3.41236 1.78494L1.70645 3.6804C0.764517 4.72699 0.764517 6.42386 1.70645 7.47131L9.38227 16L1.70645 24.5287C0.764517 25.5753 0.764517 27.2722 1.70645 28.3196L3.41236 30.2151C4.35429 31.2616 5.88224 31.2616 6.82418 30.2151L14.5 21.6864L22.1758 30.2151C23.1178 31.2616 24.6457 31.2616 25.5876 30.2151L27.2936 28.3196C28.2355 27.273 28.2355 25.5761 27.2936 24.5287L19.6177 16Z" fill="#9B59B6" stroke="white"/>
</svg>
